<svg width="703" height="475" viewBox="0 0 703 475" fill="none" xmlns="http://www.w3.org/2000/svg">
<path d="M210.965 51.803L201.867 57.056L192.769 62.309V51.803V41.297L201.867 46.55L210.965 51.803Z" fill="#0A3170"/>
<path d="M211.229 63.679V39.927L231.799 51.803L211.229 63.679ZM212.811 42.667V60.938L228.634 51.803L212.811 42.667Z" fill="#0A3170"/>
<path d="M250.26 51.803L241.161 57.056L232.063 62.309V51.803V41.297L241.161 46.55L250.26 51.803Z" fill="#0A3170"/>
<path d="M250.523 63.679V39.927L271.093 51.803L250.523 63.679ZM252.106 42.667V60.938L267.929 51.803L252.106 42.667Z" fill="#0A3170"/>
<path d="M289.554 51.803L280.456 57.056L271.357 62.309V51.803V41.297L280.456 46.55L289.554 51.803Z" fill="#0A3170"/>
<path d="M289.818 63.679V39.927L310.388 51.803L289.818 63.679ZM291.4 42.667V60.938L307.223 51.803L291.4 42.667Z" fill="#0A3170"/>
<path d="M680.215 405.224L692.882 420.395L694.779 418.811L683.434 405.224L694.779 391.637L692.882 390.053L680.215 405.224Z" fill="#0A3170"/>
<path d="M662.985 405.224L675.653 420.395L677.549 418.811L666.204 405.224L677.549 391.637L675.653 390.053L662.985 405.224Z" fill="#0A3170"/>
<path d="M645.756 405.224L658.423 420.395L660.32 418.811L648.975 405.224L660.32 391.637L658.423 390.053L645.756 405.224Z" fill="#0A3170"/>
<path d="M618.997 247.629L643.938 290.828L668.878 334.026H618.997H569.117L594.057 290.828L618.997 247.629Z" fill="#0A3170"/>
<path d="M568.968 311.881H624.438L621.924 307.527H571.482L568.968 311.881Z" fill="#0A3170"/>
<path d="M564.114 320.289H629.291L626.778 315.935H566.628L564.114 320.289Z" fill="#0A3170"/>
<path d="M559.26 328.696H634.145L631.632 324.342H561.774L559.26 328.696Z" fill="#0A3170"/>
<path d="M573.822 303.474H619.583L617.07 299.12H576.336L573.822 303.474Z" fill="#0A3170"/>
<path d="M554.406 337.103H638.999L636.486 332.749H556.92L554.406 337.103Z" fill="#0A3170"/>
<path d="M549.552 345.511H643.853L641.34 341.157H552.066L549.552 345.511Z" fill="#0A3170"/>
<path d="M578.676 295.067H614.729L612.216 290.713H581.19L578.676 295.067Z" fill="#0A3170"/>
<path d="M596.703 263.844L593.238 269.845H600.168L596.703 263.844Z" fill="#0A3170"/>
<path d="M583.53 286.659H609.876L607.362 282.306H586.044L583.53 286.659Z" fill="#0A3170"/>
<path d="M590.898 273.898L588.384 278.252H605.022L602.508 273.898H590.898Z" fill="#0A3170"/>
<path d="M132.777 132.877C157.08 108.574 157.08 69.1712 132.777 44.8683C108.474 20.5654 69.0711 20.5654 44.7682 44.8683C20.4653 69.1712 20.4653 108.574 44.7682 132.877C69.0711 157.18 108.474 157.18 132.777 132.877Z" fill="#0A3170"/>
<path d="M17.246 62.064L17.323 61.511C17.297 61.696 17.269 61.879 17.246 62.064Z" fill="#0A3170"/>
<path d="M78.233 12.97L62.746 124.646C65.001 125.07 67.303 125.354 69.642 125.501L85.104 14.007C82.858 13.525 80.566 13.174 78.233 12.97Z" fill="#0A3170"/>
<path d="M91.395 15.726L76.167 125.534C78.586 125.409 80.966 125.148 83.293 124.73L98.027 18.481C95.886 17.432 93.676 16.501 91.395 15.726Z" fill="#0A3170"/>
<path d="M104.081 21.918L90.055 123.063C92.612 122.266 95.088 121.295 97.472 120.16L110.428 26.733C108.431 24.983 106.31 23.375 104.081 21.918Z" fill="#0A3170"/>
<path d="M64.626 13.416L49.772 120.526C51.923 121.511 54.15 122.353 56.434 123.066L71.73 12.767C69.319 12.832 66.951 13.059 64.626 13.416Z" fill="#0A3170"/>
<path d="M116.154 32.5299L104.561 116.13C107.383 114.243 110.028 112.116 112.458 109.767L122.024 40.7899C120.312 37.8559 118.347 35.0929 116.154 32.5299Z" fill="#0A3170"/>
<path d="M129.668 67.87C129.539 62.335 128.604 57.01 127 51.99L120.295 100.34C126.457 91.052 129.947 79.858 129.668 67.87Z" fill="#0A3170"/>
<path d="M50.513 17.515L37.314 112.697C39.329 114.362 41.46 115.89 43.694 117.266L57.896 14.856C55.355 15.571 52.893 16.467 50.513 17.515Z" fill="#0A3170"/>
<path d="M35.638 27.111L25.604 99.468C27.359 102.223 29.355 104.804 31.545 107.204L43.466 21.239C40.684 22.971 38.067 24.938 35.638 27.111Z" fill="#0A3170"/>
<path d="M17.322 61.511L17.245 62.064C16.898 64.821 16.746 67.638 16.813 70.5C16.967 77.109 18.262 83.422 20.487 89.267L27.937 35.541C22.383 43.01 18.632 51.882 17.322 61.511Z" fill="#0A3170"/>
<path d="M120.765 269.56L102.181 285.078L104.121 287.401L120.765 273.503L137.409 287.401L139.349 285.078L120.765 269.56Z" fill="#0A3170"/>
<path d="M120.765 248.454L102.181 263.972L104.121 266.295L120.765 252.398L137.409 266.295L139.349 263.972L120.765 248.454Z" fill="#0A3170"/>
<path d="M120.765 227.349L102.181 242.866L104.121 245.19L120.765 231.292L137.409 245.19L139.349 242.866L120.765 227.349Z" fill="#0A3170"/>
<path d="M120.989 177.955C110.731 177.955 102.386 186.3 102.386 196.558C102.386 206.816 110.731 215.161 120.989 215.161C131.247 215.161 139.592 206.816 139.592 196.558C139.592 186.301 131.246 177.955 120.989 177.955ZM120.989 212.134C112.4 212.134 105.413 205.147 105.413 196.558C105.413 187.969 112.4 180.982 120.989 180.982C129.578 180.982 136.565 187.969 136.565 196.558C136.565 205.147 129.577 212.134 120.989 212.134Z" fill="#0A3170"/>
<path d="M191.942 181.51H171.235V177.447H187.88V158.771H206.556V138.85H223.987V120.174H242.663V102.284H246.725V124.237H228.049V142.913H210.618V162.834H191.942V181.51Z" fill="#0A3170"/>
<path d="M416.866 474.545H396.158V470.482H412.803V451.806H431.479V431.885H448.91V413.208H467.586V395.319H471.649V417.271H452.973V435.948H435.542V455.869H416.866V474.545Z" fill="#0A3170"/>
<path d="M27.599 285.443C27.599 288.455 26.453 291.467 24.16 293.76L19.85 289.451C22.06 287.241 22.06 283.645 19.85 281.435L18.97 280.555C14.384 275.969 14.384 268.506 18.97 263.92L19.852 263.039C22.061 260.829 22.06 257.233 19.851 255.023L18.09 253.263C13.503 248.676 13.503 241.214 18.09 236.628C19.16 235.558 19.75 234.134 19.75 232.62C19.75 231.106 19.16 229.682 18.09 228.612L17.21 227.732C12.623 223.146 12.623 215.683 17.21 211.097L18.118 210.189C20.318 207.989 20.325 204.401 18.135 202.191L16.066 200.104C11.582 195.58 11.548 188.185 15.991 183.62L17.114 182.466C19.266 180.256 19.24 176.685 17.06 174.505L16.096 173.541L20.406 169.232L21.369 170.195C25.893 174.719 25.944 182.131 21.481 186.716L20.358 187.87C18.218 190.069 18.233 193.632 20.394 195.813L22.463 197.9C27.007 202.486 26.992 209.932 22.426 214.498L21.518 215.406C20.448 216.476 19.858 217.9 19.858 219.414C19.858 220.928 20.448 222.351 21.518 223.422L22.398 224.302C24.62 226.524 25.843 229.478 25.843 232.619C25.843 235.761 24.62 238.715 22.398 240.937C20.188 243.148 20.188 246.744 22.398 248.953L24.159 250.713C28.745 255.3 28.745 262.762 24.159 267.348L23.277 268.229C21.068 270.439 21.068 274.035 23.278 276.245L24.158 277.125C26.452 279.418 27.599 282.43 27.599 285.443Z" fill="#0A3170"/>
<path d="M46.897 285.443C46.897 288.455 45.751 291.467 43.458 293.76L39.148 289.451C41.358 287.241 41.358 283.645 39.148 281.435L38.268 280.555C33.682 275.969 33.682 268.506 38.268 263.92L39.15 263.039C41.359 260.829 41.358 257.233 39.149 255.023L37.388 253.263C32.801 248.676 32.801 241.214 37.388 236.628C38.458 235.558 39.048 234.134 39.048 232.62C39.048 231.106 38.458 229.682 37.388 228.612L36.508 227.732C31.921 223.146 31.921 215.683 36.508 211.097L37.416 210.189C39.616 207.989 39.623 204.401 37.433 202.191L35.364 200.104C30.88 195.58 30.847 188.185 35.289 183.62L36.412 182.466C38.564 180.256 38.538 176.685 36.358 174.505L35.394 173.541L39.704 169.232L40.667 170.195C45.192 174.719 45.241 182.131 40.779 186.716L39.656 187.87C37.516 190.069 37.531 193.632 39.692 195.813L41.761 197.9C46.305 202.486 46.29 209.932 41.724 214.498L40.816 215.406C39.746 216.476 39.156 217.9 39.156 219.414C39.156 220.928 39.746 222.351 40.816 223.422L41.696 224.302C43.918 226.524 45.141 229.478 45.141 232.619C45.141 235.761 43.917 238.715 41.696 240.937C39.487 243.148 39.487 246.744 41.696 248.953L43.457 250.713C48.043 255.3 48.043 262.762 43.457 267.348L42.575 268.229C40.366 270.439 40.366 274.035 42.576 276.245L43.456 277.125C45.751 279.418 46.897 282.43 46.897 285.443Z" fill="#0A3170"/>
<path d="M254.016 271.303H200.816V324.503H254.016V271.303Z" fill="#0A3170"/>
<path d="M246.808 319.012H191.549V263.753H246.808V319.012ZM193.608 316.952H244.748V265.812H193.608V316.952Z" fill="#0A3170"/>
<path d="M656.199 447.349L667.594 458.744L678.988 447.349L667.594 435.955L656.199 447.349Z" fill="#0A3170"/>
<path d="M656.323 447.268L645.027 458.564L633.731 447.268L645.027 435.972L656.323 447.268ZM645.027 457.722L655.481 447.268L645.027 436.814L634.573 447.268L645.027 457.722Z" fill="#0A3170"/>
<path d="M700.661 447.268L689.365 458.564L678.069 447.268L689.365 435.972L700.661 447.268ZM689.366 457.722L699.82 447.268L689.366 436.814L678.912 447.268L689.366 457.722Z" fill="#0A3170"/>
<path d="M610.836 447.348L622.231 458.742L633.625 447.348L622.231 435.954L610.836 447.348Z" fill="#0A3170"/>
<path d="M610.957 447.268L599.661 458.564L588.365 447.268L599.661 435.972L610.957 447.268ZM599.661 457.722L610.115 447.268L599.661 436.814L589.207 447.268L599.661 457.722Z" fill="#0A3170"/>
<path d="M544.226 109.822L587.568 68.3453L546.091 25.0033L502.749 66.4797L544.226 109.822Z" fill="#0A3170"/>
<path d="M512.904 65.314L557.924 22.234L601.004 67.254L555.984 110.334L512.904 65.314ZM557.852 25.518L516.188 65.387L556.057 107.051L597.722 67.182L557.852 25.518Z" fill="#0A3170"/>
<path d="M489.425 65.314L534.445 22.234L577.525 67.254L532.505 110.334L489.425 65.314ZM534.372 25.518L492.708 65.387L532.577 107.051L574.241 67.182L534.372 25.518Z" fill="#0A3170"/>
<path d="M70.0491 449.929L72.2036 452.083L80.4633 443.824L78.3087 441.669L70.0491 449.929Z" fill="#0A3170"/>
<path d="M78.3058 452.076L80.4603 449.921L72.2007 441.662L70.0461 443.816L78.3058 452.076Z" fill="#0A3170"/>
<path d="M70.0489 428.217L72.2034 430.372L80.463 422.112L78.3085 419.957L70.0489 428.217Z" fill="#0A3170"/>
<path d="M78.3057 430.365L80.4602 428.21L72.2006 419.951L70.0461 422.105L78.3057 430.365Z" fill="#0A3170"/>
<path d="M70.0402 406.5L72.1948 408.655L80.4544 400.395L78.2999 398.241L70.0402 406.5Z" fill="#0A3170"/>
<path d="M78.3106 408.645L80.4652 406.491L72.2055 398.231L70.051 400.386L78.3106 408.645Z" fill="#0A3170"/>
<path d="M70.0404 384.79L72.1949 386.944L80.4546 378.684L78.3 376.53L70.0404 384.79Z" fill="#0A3170"/>
<path d="M78.3102 386.935L80.4647 384.78L72.2051 376.52L70.0506 378.675L78.3102 386.935Z" fill="#0A3170"/>
<path d="M70.0482 363.083L72.2028 365.237L80.4624 356.978L78.3079 354.823L70.0482 363.083Z" fill="#0A3170"/>
<path d="M78.3052 365.231L80.4598 363.077L72.2001 354.817L70.0456 356.972L78.3052 365.231Z" fill="#0A3170"/>
<path d="M91.8875 449.928L94.042 452.083L102.302 443.823L100.147 441.669L91.8875 449.928Z" fill="#0A3170"/>
<path d="M100.138 452.085L102.293 449.931L94.0332 441.671L91.8786 443.826L100.138 452.085Z" fill="#0A3170"/>
<path d="M91.8873 428.217L94.0418 430.371L102.301 422.112L100.147 419.957L91.8873 428.217Z" fill="#0A3170"/>
<path d="M100.138 430.374L102.293 428.219L94.0333 419.96L91.8788 422.114L100.138 430.374Z" fill="#0A3170"/>
<path d="M91.8783 406.501L94.0328 408.655L102.292 400.396L100.138 398.241L91.8783 406.501Z" fill="#0A3170"/>
<path d="M100.144 408.654L102.298 406.499L94.0385 398.239L91.884 400.394L100.144 408.654Z" fill="#0A3170"/>
<path d="M91.8784 384.789L94.033 386.944L102.293 378.684L100.138 376.53L91.8784 384.789Z" fill="#0A3170"/>
<path d="M100.143 386.942L102.298 384.788L94.0383 376.528L91.8838 378.683L100.143 386.942Z" fill="#0A3170"/>
<path d="M91.8866 363.083L94.0411 365.237L102.301 356.977L100.146 354.823L91.8866 363.083Z" fill="#0A3170"/>
<path d="M100.139 365.24L102.294 363.085L94.0341 354.826L91.8795 356.98L100.139 365.24Z" fill="#0A3170"/>
<path d="M112.203 449.928L114.357 452.083L122.617 443.823L120.462 441.669L112.203 449.928Z" fill="#0A3170"/>
<path d="M120.459 452.075L122.613 449.921L114.353 441.661L112.199 443.816L120.459 452.075Z" fill="#0A3170"/>
<path d="M112.202 428.217L114.357 430.371L122.617 422.112L120.462 419.957L112.202 428.217Z" fill="#0A3170"/>
<path d="M120.458 430.364L122.613 428.21L114.353 419.95L112.199 422.105L120.458 430.364Z" fill="#0A3170"/>
<path d="M112.193 406.501L114.348 408.656L122.607 400.396L120.453 398.241L112.193 406.501Z" fill="#0A3170"/>
<path d="M120.463 408.644L122.617 406.49L114.358 398.23L112.203 400.384L120.463 408.644Z" fill="#0A3170"/>
<path d="M112.193 384.79L114.348 386.945L122.607 378.685L120.453 376.53L112.193 384.79Z" fill="#0A3170"/>
<path d="M120.462 386.933L122.617 384.779L114.357 376.519L112.203 378.674L120.462 386.933Z" fill="#0A3170"/>
<path d="M112.202 363.083L114.356 365.237L122.616 356.977L120.461 354.823L112.202 363.083Z" fill="#0A3170"/>
<path d="M120.458 365.231L122.613 363.076L114.353 354.817L112.198 356.971L120.458 365.231Z" fill="#0A3170"/>
<mask id="mask0_31_1175" style="mask-type:luminance" maskUnits="userSpaceOnUse" x="422" y="144" width="143" height="143">
<path d="M543.429 265.814C571.195 238.048 571.195 193.03 543.429 165.264C515.663 137.498 470.645 137.498 442.879 165.264C415.113 193.03 415.113 238.048 442.879 265.814C470.645 293.58 515.663 293.58 543.429 265.814Z" fill="white"/>
</mask>
<g mask="url(#mask0_31_1175)">
<path d="M422.736 260.251L421.451 261.538L426.382 266.462L427.667 265.175L422.736 260.251Z" fill="#0A3170"/>
<path d="M421.443 265.215L422.729 266.499L427.653 261.568L426.367 260.283L421.443 265.215Z" fill="#0A3170"/>
<path d="M422.746 273.283L421.461 274.569L426.393 279.494L427.677 278.207L422.746 273.283Z" fill="#0A3170"/>
<path d="M421.451 278.243L422.737 279.527L427.661 274.596L426.375 273.311L421.451 278.243Z" fill="#0A3170"/>
<path d="M422.766 285.456L421.481 286.743L426.412 291.668L427.696 290.381L422.766 285.456Z" fill="#0A3170"/>
<path d="M421.479 290.357L422.766 291.642L427.69 286.711L426.403 285.426L421.479 290.357Z" fill="#0A3170"/>
</g>
<mask id="mask1_31_1175" style="mask-type:luminance" maskUnits="userSpaceOnUse" x="422" y="144" width="143" height="143">
<path d="M543.429 265.814C571.195 238.048 571.195 193.03 543.429 165.264C515.663 137.498 470.645 137.498 442.879 165.264C415.113 193.03 415.113 238.048 442.879 265.814C470.645 293.58 515.663 293.58 543.429 265.814Z" fill="white"/>
</mask>
<g mask="url(#mask1_31_1175)">
<path d="M422.716 221.676L421.431 222.962L426.363 227.887L427.647 226.6L422.716 221.676Z" fill="#0A3170"/>
<path d="M421.468 226.602L422.754 227.887L427.679 222.956L426.393 221.672L421.468 226.602Z" fill="#0A3170"/>
<path d="M422.719 234.686L421.434 235.972L426.366 240.897L427.65 239.61L422.719 234.686Z" fill="#0A3170"/>
<path d="M421.427 239.646L422.714 240.931L427.638 236L426.352 234.715L421.427 239.646Z" fill="#0A3170"/>
<path d="M422.727 246.805L421.442 248.091L426.374 253.015L427.658 251.729L422.727 246.805Z" fill="#0A3170"/>
<path d="M421.434 251.766L422.721 253.051L427.645 248.12L426.359 246.835L421.434 251.766Z" fill="#0A3170"/>
</g>
<mask id="mask2_31_1175" style="mask-type:luminance" maskUnits="userSpaceOnUse" x="422" y="144" width="143" height="143">
<path d="M543.429 265.814C571.195 238.048 571.195 193.03 543.429 165.264C515.663 137.498 470.645 137.498 442.879 165.264C415.113 193.03 415.113 238.048 442.879 265.814C470.645 293.58 515.663 293.58 543.429 265.814Z" fill="white"/>
</mask>
<g mask="url(#mask2_31_1175)">
<path d="M422.701 183.107L421.417 184.393L426.347 189.318L427.632 188.032L422.701 183.107Z" fill="#0A3170"/>
<path d="M421.413 188.015L422.699 189.3L427.623 184.368L426.337 183.084L421.413 188.015Z" fill="#0A3170"/>
<path d="M422.7 196.109L421.415 197.396L426.346 202.32L427.631 201.033L422.7 196.109Z" fill="#0A3170"/>
<path d="M421.402 201.05L422.689 202.335L427.613 197.404L426.326 196.119L421.402 201.05Z" fill="#0A3170"/>
<path d="M422.708 208.229L421.423 209.515L426.354 214.44L427.639 213.153L422.708 208.229Z" fill="#0A3170"/>
<path d="M421.41 213.169L422.697 214.454L427.621 209.523L426.335 208.238L421.41 213.169Z" fill="#0A3170"/>
</g>
<mask id="mask3_31_1175" style="mask-type:luminance" maskUnits="userSpaceOnUse" x="422" y="144" width="143" height="143">
<path d="M543.429 265.814C571.195 238.048 571.195 193.03 543.429 165.264C515.663 137.498 470.645 137.498 442.879 165.264C415.113 193.03 415.113 238.048 442.879 265.814C470.645 293.58 515.663 293.58 543.429 265.814Z" fill="white"/>
</mask>
<g mask="url(#mask3_31_1175)">
<path d="M422.658 144.466L421.373 145.752L426.304 150.676L427.589 149.39L422.658 144.466Z" fill="#0A3170"/>
<path d="M421.372 149.424L422.659 150.709L427.583 145.777L426.297 144.493L421.372 149.424Z" fill="#0A3170"/>
<path d="M422.686 157.539L421.401 158.825L426.332 163.75L427.617 162.464L422.686 157.539Z" fill="#0A3170"/>
<path d="M421.379 162.454L422.665 163.739L427.589 158.807L426.303 157.523L421.379 162.454Z" fill="#0A3170"/>
<path d="M422.694 169.659L421.409 170.945L426.34 175.87L427.624 174.584L422.694 169.659Z" fill="#0A3170"/>
<path d="M421.404 174.566L422.69 175.85L427.615 170.919L426.328 169.634L421.404 174.566Z" fill="#0A3170"/>
</g>
<mask id="mask4_31_1175" style="mask-type:luminance" maskUnits="userSpaceOnUse" x="422" y="144" width="143" height="143">
<path d="M543.429 265.814C571.195 238.048 571.195 193.03 543.429 165.264C515.663 137.498 470.645 137.498 442.879 165.264C415.113 193.03 415.113 238.048 442.879 265.814C470.645 293.58 515.663 293.58 543.429 265.814Z" fill="white"/>
</mask>
<g mask="url(#mask4_31_1175)">
<path d="M436.444 260.264L435.159 261.55L440.09 266.474L441.375 265.188L436.444 260.264Z" fill="#0A3170"/>
<path d="M435.198 265.192L436.484 266.477L441.409 261.546L440.123 260.261L435.198 265.192Z" fill="#0A3170"/>
<path d="M449.406 260.289L448.121 261.575L453.052 266.5L454.337 265.214L449.406 260.289Z" fill="#0A3170"/>
<path d="M448.097 265.197L449.384 266.482L454.308 261.551L453.021 260.266L448.097 265.197Z" fill="#0A3170"/>
<path d="M462.359 260.281L461.074 261.568L466.005 266.493L467.289 265.206L462.359 260.281Z" fill="#0A3170"/>
<path d="M461.071 265.184L462.357 266.469L467.282 261.538L465.995 260.253L461.071 265.184Z" fill="#0A3170"/>
<path d="M475.301 260.237L474.017 261.523L478.948 266.447L480.232 265.161L475.301 260.237Z" fill="#0A3170"/>
<path d="M474.059 265.165L475.345 266.45L480.27 261.519L478.984 260.234L474.059 265.165Z" fill="#0A3170"/>
<path d="M488.248 260.208L486.963 261.495L491.894 266.419L493.179 265.133L488.248 260.208Z" fill="#0A3170"/>
<path d="M486.955 265.174L488.241 266.458L493.166 261.527L491.879 260.243L486.955 265.174Z" fill="#0A3170"/>
<path d="M436.46 273.326L435.176 274.612L440.106 279.537L441.391 278.251L436.46 273.326Z" fill="#0A3170"/>
<path d="M435.153 278.234L436.44 279.519L441.364 274.588L440.078 273.303L435.153 278.234Z" fill="#0A3170"/>
<path d="M449.399 273.261L448.114 274.547L453.046 279.471L454.33 278.185L449.399 273.261Z" fill="#0A3170"/>
<path d="M448.105 278.227L449.392 279.511L454.316 274.58L453.03 273.295L448.105 278.227Z" fill="#0A3170"/>
<path d="M462.352 273.254L461.068 274.541L465.999 279.465L467.284 278.178L462.352 273.254Z" fill="#0A3170"/>
<path d="M461.058 278.218L462.345 279.502L467.269 274.571L465.982 273.287L461.058 278.218Z" fill="#0A3170"/>
<path d="M475.305 273.247L474.02 274.534L478.952 279.458L480.236 278.172L475.305 273.247Z" fill="#0A3170"/>
<path d="M474.01 278.21L475.297 279.495L480.221 274.563L478.934 273.279L474.01 278.21Z" fill="#0A3170"/>
<path d="M488.264 273.259L486.979 274.545L491.91 279.469L493.195 278.183L488.264 273.259Z" fill="#0A3170"/>
<path d="M487.023 278.184L488.309 279.469L493.234 274.538L491.948 273.253L487.023 278.184Z" fill="#0A3170"/>
<path d="M436.467 285.446L435.183 286.732L440.113 291.657L441.398 290.371L436.467 285.446Z" fill="#0A3170"/>
<path d="M435.181 290.35L436.468 291.634L441.392 286.703L440.106 285.418L435.181 290.35Z" fill="#0A3170"/>
<path d="M449.412 285.401L448.128 286.688L453.059 291.612L454.344 290.326L449.412 285.401Z" fill="#0A3170"/>
<path d="M448.169 290.332L449.455 291.617L454.38 286.687L453.094 285.402L448.169 290.332Z" fill="#0A3170"/>
<path d="M462.36 285.373L461.076 286.659L466.007 291.584L467.291 290.297L462.36 285.373Z" fill="#0A3170"/>
<path d="M461.065 290.338L462.352 291.622L467.276 286.691L465.99 285.406L461.065 290.338Z" fill="#0A3170"/>
<path d="M475.314 285.367L474.029 286.653L478.96 291.577L480.245 290.291L475.314 285.367Z" fill="#0A3170"/>
<path d="M474.018 290.329L475.304 291.614L480.229 286.682L478.942 285.398L474.018 290.329Z" fill="#0A3170"/>
<path d="M488.271 285.377L486.986 286.664L491.918 291.588L493.202 290.302L488.271 285.377Z" fill="#0A3170"/>
<path d="M487.031 290.305L488.317 291.589L493.242 286.659L491.956 285.374L487.031 290.305Z" fill="#0A3170"/>
</g>
<mask id="mask5_31_1175" style="mask-type:luminance" maskUnits="userSpaceOnUse" x="422" y="144" width="143" height="143">
<path d="M543.429 265.814C571.195 238.048 571.195 193.03 543.429 165.264C515.663 137.498 470.645 137.498 442.879 165.264C415.113 193.03 415.113 238.048 442.879 265.814C470.645 293.58 515.663 293.58 543.429 265.814Z" fill="white"/>
</mask>
<g mask="url(#mask5_31_1175)">
<path d="M436.411 221.646L435.127 222.933L440.058 227.857L441.343 226.571L436.411 221.646Z" fill="#0A3170"/>
<path d="M435.121 226.61L436.407 227.895L441.332 222.963L440.045 221.679L435.121 226.61Z" fill="#0A3170"/>
<path d="M449.364 221.639L448.079 222.925L453.011 227.85L454.295 226.563L449.364 221.639Z" fill="#0A3170"/>
<path d="M448.073 226.602L449.359 227.887L454.284 222.955L452.997 221.671L448.073 226.602Z" fill="#0A3170"/>
<path d="M462.325 221.652L461.04 222.939L465.971 227.863L467.256 226.577L462.325 221.652Z" fill="#0A3170"/>
<path d="M461.078 226.575L462.364 227.86L467.289 222.929L466.003 221.644L461.078 226.575Z" fill="#0A3170"/>
<path d="M475.289 221.674L474.004 222.96L478.934 227.885L480.219 226.599L475.289 221.674Z" fill="#0A3170"/>
<path d="M473.998 226.578L475.284 227.863L480.209 222.932L478.922 221.647L473.998 226.578Z" fill="#0A3170"/>
<path d="M488.222 221.612L486.937 222.899L491.868 227.823L493.153 226.537L488.222 221.612Z" fill="#0A3170"/>
<path d="M486.952 226.57L488.238 227.854L493.163 222.923L491.876 221.639L486.952 226.57Z" fill="#0A3170"/>
<path d="M436.428 234.698L435.143 235.984L440.074 240.909L441.359 239.622L436.428 234.698Z" fill="#0A3170"/>
<path d="M435.18 239.622L436.467 240.906L441.392 235.976L440.105 234.691L435.18 239.622Z" fill="#0A3170"/>
<path d="M449.373 234.667L448.089 235.953L453.02 240.878L454.305 239.591L449.373 234.667Z" fill="#0A3170"/>
<path d="M448.083 239.629L449.369 240.914L454.294 235.982L453.007 234.698L448.083 239.629Z" fill="#0A3170"/>
<path d="M462.343 234.711L461.059 235.997L465.989 240.922L467.274 239.636L462.343 234.711Z" fill="#0A3170"/>
<path d="M461.053 239.615L462.34 240.9L467.264 235.968L465.978 234.684L461.053 239.615Z" fill="#0A3170"/>
<path d="M475.285 234.67L474 235.957L478.931 240.881L480.216 239.595L475.285 234.67Z" fill="#0A3170"/>
<path d="M473.987 239.614L475.273 240.899L480.197 235.967L478.911 234.683L473.987 239.614Z" fill="#0A3170"/>
<path d="M488.23 234.64L486.945 235.927L491.877 240.851L493.161 239.565L488.23 234.64Z" fill="#0A3170"/>
<path d="M486.939 239.606L488.225 240.891L493.149 235.959L491.863 234.675L486.939 239.606Z" fill="#0A3170"/>
<path d="M436.435 246.817L435.151 248.103L440.082 253.028L441.367 251.741L436.435 246.817Z" fill="#0A3170"/>
<path d="M435.188 251.742L436.475 253.027L441.4 248.097L440.113 246.812L435.188 251.742Z" fill="#0A3170"/>
<path d="M449.398 246.84L448.113 248.126L453.044 253.051L454.329 251.764L449.398 246.84Z" fill="#0A3170"/>
<path d="M448.109 251.743L449.396 253.027L454.32 248.096L453.033 246.811L448.109 251.743Z" fill="#0A3170"/>
<path d="M462.334 246.777L461.05 248.063L465.981 252.988L467.265 251.701L462.334 246.777Z" fill="#0A3170"/>
<path d="M461.062 251.735L462.349 253.02L467.273 248.089L465.987 246.804L461.062 251.735Z" fill="#0A3170"/>
<path d="M475.293 246.79L474.008 248.077L478.94 253.001L480.224 251.715L475.293 246.79Z" fill="#0A3170"/>
<path d="M474.049 251.715L475.336 253L480.261 248.069L478.974 246.785L474.049 251.715Z" fill="#0A3170"/>
<path d="M488.238 246.76L486.954 248.046L491.885 252.97L493.17 251.684L488.238 246.76Z" fill="#0A3170"/>
<path d="M486.947 251.725L488.233 253.01L493.157 248.079L491.871 246.794L486.947 251.725Z" fill="#0A3170"/>
</g>
<mask id="mask6_31_1175" style="mask-type:luminance" maskUnits="userSpaceOnUse" x="422" y="144" width="143" height="143">
<path d="M543.429 265.814C571.195 238.048 571.195 193.03 543.429 165.264C515.663 137.498 470.645 137.498 442.879 165.264C415.113 193.03 415.113 238.048 442.879 265.814C470.645 293.58 515.663 293.58 543.429 265.814Z" fill="white"/>
</mask>
<g mask="url(#mask6_31_1175)">
<path d="M436.386 183.052L435.101 184.338L440.032 189.263L441.317 187.976L436.386 183.052Z" fill="#0A3170"/>
<path d="M435.115 188.005L436.401 189.29L441.326 184.359L440.039 183.074L435.115 188.005Z" fill="#0A3170"/>
<path d="M449.346 183.061L448.061 184.348L452.992 189.272L454.277 187.986L449.346 183.061Z" fill="#0A3170"/>
<path d="M448.097 187.984L449.383 189.269L454.308 184.339L453.022 183.054L448.097 187.984Z" fill="#0A3170"/>
<path d="M462.29 183.035L461.005 184.321L465.937 189.246L467.221 187.959L462.29 183.035Z" fill="#0A3170"/>
<path d="M461.002 187.997L462.289 189.282L467.213 184.351L465.927 183.066L461.002 187.997Z" fill="#0A3170"/>
<path d="M475.242 183.025L473.958 184.312L478.889 189.236L480.174 187.95L475.242 183.025Z" fill="#0A3170"/>
<path d="M473.954 187.989L475.241 189.274L480.165 184.342L478.879 183.058L473.954 187.989Z" fill="#0A3170"/>
<path d="M488.195 183.017L486.911 184.303L491.842 189.228L493.126 187.941L488.195 183.017Z" fill="#0A3170"/>
<path d="M486.956 187.958L488.242 189.243L493.167 184.312L491.881 183.028L486.956 187.958Z" fill="#0A3170"/>
<path d="M436.394 196.08L435.109 197.366L440.041 202.291L441.325 201.004L436.394 196.08Z" fill="#0A3170"/>
<path d="M435.105 201.042L436.391 202.326L441.316 197.395L440.029 196.111L435.105 201.042Z" fill="#0A3170"/>
<path d="M449.347 196.071L448.062 197.358L452.993 202.282L454.278 200.996L449.347 196.071Z" fill="#0A3170"/>
<path d="M448.058 201.033L449.344 202.318L454.268 197.387L452.982 196.102L448.058 201.033Z" fill="#0A3170"/>
<path d="M462.307 196.081L461.022 197.368L465.953 202.292L467.238 201.006L462.307 196.081Z" fill="#0A3170"/>
<path d="M461.058 201.006L462.344 202.291L467.269 197.36L465.983 196.075L461.058 201.006Z" fill="#0A3170"/>
<path d="M475.273 196.105L473.989 197.391L478.919 202.316L480.204 201.03L475.273 196.105Z" fill="#0A3170"/>
<path d="M473.962 201.017L475.249 202.302L480.173 197.37L478.887 196.086L473.962 201.017Z" fill="#0A3170"/>
<path d="M488.226 196.096L486.942 197.383L491.872 202.308L493.157 201.021L488.226 196.096Z" fill="#0A3170"/>
<path d="M486.937 201L488.223 202.284L493.147 197.353L491.861 196.068L486.937 201Z" fill="#0A3170"/>
<path d="M436.403 208.2L435.118 209.486L440.049 214.41L441.334 213.124L436.403 208.2Z" fill="#0A3170"/>
<path d="M435.113 213.161L436.399 214.446L441.323 209.515L440.037 208.23L435.113 213.161Z" fill="#0A3170"/>
<path d="M449.355 208.19L448.07 209.477L453.001 214.401L454.286 213.114L449.355 208.19Z" fill="#0A3170"/>
<path d="M448.065 213.153L449.351 214.438L454.275 209.506L452.989 208.222L448.065 213.153Z" fill="#0A3170"/>
<path d="M462.308 208.182L461.023 209.468L465.954 214.392L467.239 213.106L462.308 208.182Z" fill="#0A3170"/>
<path d="M461.067 213.126L462.353 214.41L467.278 209.48L465.992 208.195L461.067 213.126Z" fill="#0A3170"/>
<path d="M475.28 208.224L473.995 209.511L478.926 214.436L480.211 213.149L475.28 208.224Z" fill="#0A3170"/>
<path d="M473.989 213.129L475.276 214.414L480.2 209.482L478.914 208.198L473.989 213.129Z" fill="#0A3170"/>
<path d="M488.213 208.164L486.928 209.45L491.859 214.374L493.144 213.088L488.213 208.164Z" fill="#0A3170"/>
<path d="M486.925 213.127L488.211 214.412L493.135 209.481L491.849 208.196L486.925 213.127Z" fill="#0A3170"/>
</g>
<mask id="mask7_31_1175" style="mask-type:luminance" maskUnits="userSpaceOnUse" x="422" y="144" width="143" height="143">
<path d="M543.429 265.814C571.195 238.048 571.195 193.03 543.429 165.264C515.663 137.498 470.645 137.498 442.879 165.264C415.113 193.03 415.113 238.048 442.879 265.814C470.645 293.58 515.663 293.58 543.429 265.814Z" fill="white"/>
</mask>
<g mask="url(#mask7_31_1175)">
<path d="M436.368 144.474L435.083 145.76L440.014 150.685L441.299 149.398L436.368 144.474Z" fill="#0A3170"/>
<path d="M435.118 149.394L436.404 150.679L441.329 145.749L440.043 144.464L435.118 149.394Z" fill="#0A3170"/>
<path d="M449.335 144.493L448.05 145.78L452.98 150.705L454.265 149.418L449.335 144.493Z" fill="#0A3170"/>
<path d="M448.041 149.401L449.327 150.686L454.252 145.755L452.965 144.47L448.041 149.401Z" fill="#0A3170"/>
<path d="M462.264 144.44L460.98 145.727L465.911 150.651L467.196 149.364L462.264 144.44Z" fill="#0A3170"/>
<path d="M460.977 149.401L462.264 150.686L467.188 145.755L465.902 144.47L460.977 149.401Z" fill="#0A3170"/>
<path d="M475.226 144.448L473.941 145.734L478.872 150.659L480.157 149.372L475.226 144.448Z" fill="#0A3170"/>
<path d="M473.932 149.392L475.219 150.676L480.143 145.745L478.856 144.46L473.932 149.392Z" fill="#0A3170"/>
<path d="M488.168 144.42L486.884 145.707L491.815 150.631L493.1 149.345L488.168 144.42Z" fill="#0A3170"/>
<path d="M486.882 149.385L488.169 150.669L493.093 145.738L491.806 144.454L486.882 149.385Z" fill="#0A3170"/>
<path d="M436.389 157.53L435.105 158.816L440.035 163.741L441.32 162.455L436.389 157.53Z" fill="#0A3170"/>
<path d="M435.098 162.437L436.385 163.722L441.309 158.791L440.022 157.506L435.098 162.437Z" fill="#0A3170"/>
<path d="M449.329 157.494L448.045 158.78L452.976 163.704L454.26 162.418L449.329 157.494Z" fill="#0A3170"/>
<path d="M448.035 162.436L449.322 163.72L454.246 158.789L452.959 157.505L448.035 162.436Z" fill="#0A3170"/>
<path d="M462.272 157.467L460.988 158.754L465.919 163.678L467.204 162.392L462.272 157.467Z" fill="#0A3170"/>
<path d="M460.986 162.43L462.273 163.714L467.197 158.783L465.91 157.498L460.986 162.43Z" fill="#0A3170"/>
<path d="M475.223 157.456L473.939 158.742L478.87 163.666L480.155 162.38L475.223 157.456Z" fill="#0A3170"/>
<path d="M473.938 162.422L475.225 163.706L480.149 158.775L478.863 157.49L473.938 162.422Z" fill="#0A3170"/>
<path d="M488.187 157.468L486.902 158.754L491.833 163.679L493.118 162.392L488.187 157.468Z" fill="#0A3170"/>
<path d="M486.891 162.413L488.177 163.698L493.102 158.766L491.815 157.482L486.891 162.413Z" fill="#0A3170"/>
<path d="M436.377 169.606L435.093 170.892L440.024 175.816L441.309 174.53L436.377 169.606Z" fill="#0A3170"/>
<path d="M435.106 174.557L436.393 175.841L441.317 170.91L440.031 169.625L435.106 174.557Z" fill="#0A3170"/>
<path d="M449.337 169.612L448.052 170.899L452.983 175.823L454.268 174.537L449.337 169.612Z" fill="#0A3170"/>
<path d="M448.042 174.555L449.329 175.84L454.253 170.909L452.967 169.624L448.042 174.555Z" fill="#0A3170"/>
<path d="M462.282 169.586L460.997 170.872L465.928 175.797L467.213 174.51L462.282 169.586Z" fill="#0A3170"/>
<path d="M460.993 174.548L462.28 175.833L467.204 170.901L465.918 169.617L460.993 174.548Z" fill="#0A3170"/>
<path d="M475.232 169.575L473.947 170.862L478.879 175.786L480.163 174.499L475.232 169.575Z" fill="#0A3170"/>
<path d="M473.946 174.541L475.233 175.825L480.157 170.894L478.87 169.609L473.946 174.541Z" fill="#0A3170"/>
<path d="M488.185 169.568L486.901 170.854L491.832 175.779L493.116 174.492L488.185 169.568Z" fill="#0A3170"/>
<path d="M486.917 174.524L488.204 175.808L493.128 170.877L491.842 169.592L486.917 174.524Z" fill="#0A3170"/>
</g>
<mask id="mask8_31_1175" style="mask-type:luminance" maskUnits="userSpaceOnUse" x="422" y="144" width="143" height="143">
<path d="M543.429 265.814C571.195 238.048 571.195 193.03 543.429 165.264C515.663 137.498 470.645 137.498 442.879 165.264C415.113 193.03 415.113 238.048 442.879 265.814C470.645 293.58 515.663 293.58 543.429 265.814Z" fill="white"/>
</mask>
<g mask="url(#mask8_31_1175)">
<path d="M499.918 260.2L498.633 261.486L503.565 266.411L504.849 265.124L499.918 260.2Z" fill="#0A3170"/>
<path d="M498.683 265.148L499.969 266.433L504.894 261.502L503.608 260.218L498.683 265.148Z" fill="#0A3170"/>
<path d="M512.871 260.191L511.586 261.478L516.518 266.402L517.802 265.116L512.871 260.191Z" fill="#0A3170"/>
<path d="M511.576 265.159L512.862 266.444L517.786 261.512L516.5 260.228L511.576 265.159Z" fill="#0A3170"/>
<path d="M525.831 260.205L524.546 261.491L529.477 266.415L530.762 265.129L525.831 260.205Z" fill="#0A3170"/>
<path d="M524.53 265.15L525.817 266.435L530.741 261.504L529.455 260.219L524.53 265.15Z" fill="#0A3170"/>
<path d="M538.776 260.173L537.491 261.46L542.423 266.384L543.707 265.098L538.776 260.173Z" fill="#0A3170"/>
<path d="M537.543 265.12L538.83 266.405L543.755 261.474L542.468 260.189L537.543 265.12Z" fill="#0A3170"/>
<path d="M551.75 260.226L550.465 261.512L555.396 266.437L556.68 265.151L551.75 260.226Z" fill="#0A3170"/>
<path d="M550.459 265.126L551.746 266.411L556.67 261.479L555.383 260.195L550.459 265.126Z" fill="#0A3170"/>
<path d="M499.934 273.25L498.65 274.537L503.581 279.461L504.865 278.175L499.934 273.25Z" fill="#0A3170"/>
<path d="M498.634 278.194L499.92 279.479L504.844 274.548L503.558 273.263L498.634 278.194Z" fill="#0A3170"/>
<path d="M512.88 273.219L511.595 274.505L516.526 279.429L517.811 278.143L512.88 273.219Z" fill="#0A3170"/>
<path d="M511.645 278.168L512.931 279.453L517.856 274.522L516.57 273.237L511.645 278.168Z" fill="#0A3170"/>
<path d="M525.832 273.211L524.547 274.497L529.479 279.421L530.763 278.135L525.832 273.211Z" fill="#0A3170"/>
<path d="M524.539 278.178L525.825 279.463L530.75 274.532L529.463 273.247L524.539 278.178Z" fill="#0A3170"/>
<path d="M538.783 273.198L537.498 274.485L542.43 279.409L543.714 278.123L538.783 273.198Z" fill="#0A3170"/>
<path d="M537.514 278.163L538.801 279.448L543.725 274.516L542.439 273.232L537.514 278.163Z" fill="#0A3170"/>
<path d="M551.737 273.193L550.452 274.479L555.384 279.404L556.668 278.117L551.737 273.193Z" fill="#0A3170"/>
<path d="M550.441 278.163L551.727 279.448L556.651 274.516L555.365 273.232L550.441 278.163Z" fill="#0A3170"/>
<path d="M499.942 285.369L498.657 286.656L503.588 291.58L504.873 290.294L499.942 285.369Z" fill="#0A3170"/>
<path d="M498.641 290.314L499.927 291.599L504.851 286.667L503.565 285.383L498.641 290.314Z" fill="#0A3170"/>
<path d="M512.888 285.338L511.604 286.625L516.535 291.549L517.82 290.262L512.888 285.338Z" fill="#0A3170"/>
<path d="M511.654 290.288L512.94 291.573L517.865 286.642L516.579 285.357L511.654 290.288Z" fill="#0A3170"/>
<path d="M525.858 285.391L524.574 286.677L529.504 291.602L530.789 290.316L525.858 285.391Z" fill="#0A3170"/>
<path d="M524.57 290.291L525.856 291.576L530.78 286.645L529.494 285.36L524.57 290.291Z" fill="#0A3170"/>
<path d="M538.792 285.318L537.507 286.604L542.438 291.529L543.723 290.242L538.792 285.318Z" fill="#0A3170"/>
<path d="M537.523 290.282L538.809 291.567L543.733 286.636L542.447 285.351L537.523 290.282Z" fill="#0A3170"/>
<path d="M551.745 285.311L550.46 286.598L555.391 291.522L556.676 290.236L551.745 285.311Z" fill="#0A3170"/>
<path d="M550.514 290.261L551.801 291.546L556.726 286.615L555.439 285.331L550.514 290.261Z" fill="#0A3170"/>
</g>
<mask id="mask9_31_1175" style="mask-type:luminance" maskUnits="userSpaceOnUse" x="422" y="144" width="143" height="143">
<path d="M543.429 265.814C571.195 238.048 571.195 193.03 543.429 165.264C515.663 137.498 470.645 137.498 442.879 165.264C415.113 193.03 415.113 238.048 442.879 265.814C470.645 293.58 515.663 293.58 543.429 265.814Z" fill="white"/>
</mask>
<g mask="url(#mask9_31_1175)">
<path d="M499.913 221.659L498.629 222.945L503.559 227.87L504.844 226.584L499.913 221.659Z" fill="#0A3170"/>
<path d="M498.624 226.561L499.911 227.846L504.835 222.914L503.549 221.63L498.624 226.561Z" fill="#0A3170"/>
<path d="M512.844 221.596L511.559 222.882L516.49 227.806L517.775 226.52L512.844 221.596Z" fill="#0A3170"/>
<path d="M511.575 226.555L512.862 227.839L517.786 222.908L516.499 221.623L511.575 226.555Z" fill="#0A3170"/>
<path d="M525.795 221.584L524.511 222.871L529.442 227.795L530.727 226.508L525.795 221.584Z" fill="#0A3170"/>
<path d="M524.564 226.531L525.85 227.816L530.775 222.885L529.489 221.6L524.564 226.531Z" fill="#0A3170"/>
<path d="M538.749 221.578L537.464 222.864L542.395 227.788L543.68 226.502L538.749 221.578Z" fill="#0A3170"/>
<path d="M537.459 226.546L538.745 227.831L543.669 222.9L542.383 221.615L537.459 226.546Z" fill="#0A3170"/>
<path d="M551.703 221.572L550.418 222.858L555.349 227.782L556.634 226.496L551.703 221.572Z" fill="#0A3170"/>
<path d="M550.411 226.538L551.698 227.822L556.622 222.891L555.336 221.606L550.411 226.538Z" fill="#0A3170"/>
<path d="M499.9 234.631L498.615 235.917L503.547 240.841L504.831 239.555L499.9 234.631Z" fill="#0A3170"/>
<path d="M498.61 239.598L499.896 240.883L504.821 235.952L503.534 234.667L498.61 239.598Z" fill="#0A3170"/>
<path d="M512.853 234.624L511.568 235.91L516.5 240.834L517.784 239.548L512.853 234.624Z" fill="#0A3170"/>
<path d="M511.562 239.59L512.849 240.875L517.773 235.944L516.486 234.659L511.562 239.59Z" fill="#0A3170"/>
<path d="M525.806 234.617L524.522 235.903L529.453 240.828L530.737 239.541L525.806 234.617Z" fill="#0A3170"/>
<path d="M524.514 239.583L525.801 240.867L530.725 235.936L529.438 234.651L524.514 239.583Z" fill="#0A3170"/>
<path d="M538.758 234.606L537.473 235.892L542.405 240.816L543.689 239.53L538.758 234.606Z" fill="#0A3170"/>
<path d="M537.472 239.525L538.758 240.81L543.683 235.879L542.397 234.594L537.472 239.525Z" fill="#0A3170"/>
<path d="M551.734 234.656L550.45 235.942L555.38 240.867L556.665 239.581L551.734 234.656Z" fill="#0A3170"/>
<path d="M550.419 239.566L551.705 240.851L556.63 235.919L555.343 234.635L550.419 239.566Z" fill="#0A3170"/>
<path d="M499.908 246.749L498.623 248.036L503.555 252.96L504.839 251.673L499.908 246.749Z" fill="#0A3170"/>
<path d="M498.674 251.699L499.96 252.983L504.885 248.053L503.599 246.768L498.674 251.699Z" fill="#0A3170"/>
<path d="M512.862 246.743L511.577 248.03L516.508 252.954L517.793 251.667L512.862 246.743Z" fill="#0A3170"/>
<path d="M511.57 251.71L512.856 252.994L517.781 248.063L516.494 246.778L511.57 251.71Z" fill="#0A3170"/>
<path d="M525.815 246.736L524.53 248.023L529.461 252.947L530.746 251.661L525.815 246.736Z" fill="#0A3170"/>
<path d="M524.522 251.702L525.808 252.986L530.733 248.055L529.446 246.77L524.522 251.702Z" fill="#0A3170"/>
<path d="M538.789 246.785L537.504 248.071L542.435 252.996L543.72 251.71L538.789 246.785Z" fill="#0A3170"/>
<path d="M537.481 251.644L538.767 252.928L543.692 247.997L542.406 246.712L537.481 251.644Z" fill="#0A3170"/>
<path d="M551.741 246.777L550.457 248.063L555.387 252.988L556.672 251.702L551.741 246.777Z" fill="#0A3170"/>
<path d="M550.451 251.677L551.737 252.962L556.661 248.03L555.375 246.746L550.451 251.677Z" fill="#0A3170"/>
</g>
<mask id="mask10_31_1175" style="mask-type:luminance" maskUnits="userSpaceOnUse" x="422" y="144" width="143" height="143">
<path d="M543.429 265.814C571.195 238.048 571.195 193.03 543.429 165.264C515.663 137.498 470.645 137.498 442.879 165.264C415.113 193.03 415.113 238.048 442.879 265.814C470.645 293.58 515.663 293.58 543.429 265.814Z" fill="white"/>
</mask>
<g mask="url(#mask10_31_1175)">
<path d="M499.865 183.009L498.581 184.295L503.512 189.219L504.797 187.933L499.865 183.009Z" fill="#0A3170"/>
<path d="M498.578 187.974L499.864 189.258L504.788 184.327L503.502 183.042L498.578 187.974Z" fill="#0A3170"/>
<path d="M512.844 183.055L511.559 184.341L516.49 189.266L517.774 187.98L512.844 183.055Z" fill="#0A3170"/>
<path d="M511.583 187.941L512.869 189.225L517.794 184.295L516.508 183.01L511.583 187.941Z" fill="#0A3170"/>
<path d="M525.796 183.045L524.512 184.331L529.442 189.256L530.727 187.97L525.796 183.045Z" fill="#0A3170"/>
<path d="M524.503 187.947L525.789 189.232L530.714 184.301L529.427 183.016L524.503 187.947Z" fill="#0A3170"/>
<path d="M538.723 182.981L537.438 184.268L542.369 189.192L543.654 187.906L538.723 182.981Z" fill="#0A3170"/>
<path d="M537.435 187.949L538.721 189.234L543.645 184.303L542.359 183.018L537.435 187.949Z" fill="#0A3170"/>
<path d="M551.685 182.995L550.401 184.281L555.332 189.205L556.616 187.919L551.685 182.995Z" fill="#0A3170"/>
<path d="M550.444 187.913L551.73 189.198L556.655 184.268L555.369 182.983L550.444 187.913Z" fill="#0A3170"/>
<path d="M499.874 196.036L498.59 197.323L503.521 202.247L504.805 200.96L499.874 196.036Z" fill="#0A3170"/>
<path d="M498.587 201.001L499.874 202.286L504.798 197.354L503.512 196.07L498.587 201.001Z" fill="#0A3170"/>
<path d="M512.851 196.082L511.566 197.369L516.496 202.294L517.781 201.007L512.851 196.082Z" fill="#0A3170"/>
<path d="M511.559 200.985L512.846 202.27L517.77 197.339L516.483 196.054L511.559 200.985Z" fill="#0A3170"/>
<path d="M525.778 196.019L524.494 197.305L529.425 202.229L530.71 200.943L525.778 196.019Z" fill="#0A3170"/>
<path d="M524.546 200.961L525.832 202.246L530.757 197.315L529.471 196.031L524.546 200.961Z" fill="#0A3170"/>
<path d="M538.731 196.01L537.447 197.297L542.378 202.221L543.663 200.935L538.731 196.01Z" fill="#0A3170"/>
<path d="M537.443 200.978L538.73 202.262L543.654 197.331L542.368 196.047L537.443 200.978Z" fill="#0A3170"/>
<path d="M551.684 196.001L550.399 197.287L555.33 202.212L556.615 200.925L551.684 196.001Z" fill="#0A3170"/>
<path d="M550.393 200.971L551.679 202.256L556.603 197.324L555.317 196.04L550.393 200.971Z" fill="#0A3170"/>
<path d="M499.905 208.209L498.621 209.496L503.551 214.421L504.836 213.134L499.905 208.209Z" fill="#0A3170"/>
<path d="M498.614 213.113L499.9 214.397L504.824 209.466L503.538 208.181L498.614 213.113Z" fill="#0A3170"/>
<path d="M512.835 208.146L511.55 209.433L516.482 214.357L517.766 213.071L512.835 208.146Z" fill="#0A3170"/>
<path d="M511.567 213.105L512.853 214.39L517.777 209.459L516.491 208.174L511.567 213.105Z" fill="#0A3170"/>
<path d="M525.796 208.159L524.512 209.446L529.443 214.37L530.728 213.084L525.796 208.159Z" fill="#0A3170"/>
<path d="M524.554 213.081L525.841 214.366L530.766 209.435L529.479 208.15L524.554 213.081Z" fill="#0A3170"/>
<path d="M538.739 208.129L537.455 209.415L542.386 214.34L543.67 213.053L538.739 208.129Z" fill="#0A3170"/>
<path d="M537.451 213.097L538.737 214.382L543.661 209.451L542.375 208.166L537.451 213.097Z" fill="#0A3170"/>
<path d="M551.692 208.12L550.408 209.407L555.339 214.331L556.623 213.045L551.692 208.12Z" fill="#0A3170"/>
<path d="M550.401 213.09L551.687 214.375L556.611 209.443L555.325 208.159L550.401 213.09Z" fill="#0A3170"/>
</g>
<mask id="mask11_31_1175" style="mask-type:luminance" maskUnits="userSpaceOnUse" x="422" y="144" width="143" height="143">
<path d="M543.429 265.814C571.195 238.048 571.195 193.03 543.429 165.264C515.663 137.498 470.645 137.498 442.879 165.264C415.113 193.03 415.113 238.048 442.879 265.814C470.645 293.58 515.663 293.58 543.429 265.814Z" fill="white"/>
</mask>
<g mask="url(#mask11_31_1175)">
<path d="M499.85 144.432L498.565 145.718L503.496 150.643L504.781 149.356L499.85 144.432Z" fill="#0A3170"/>
<path d="M498.603 149.35L499.889 150.635L504.814 145.704L503.528 144.419L498.603 149.35Z" fill="#0A3170"/>
<path d="M512.791 144.404L511.506 145.691L516.438 150.615L517.722 149.329L512.791 144.404Z" fill="#0A3170"/>
<path d="M511.506 149.37L512.793 150.654L517.717 145.723L516.43 144.438L511.506 149.37Z" fill="#0A3170"/>
<path d="M525.743 144.395L524.458 145.681L529.39 150.606L530.674 149.319L525.743 144.395Z" fill="#0A3170"/>
<path d="M524.458 149.362L525.745 150.646L530.669 145.715L529.383 144.431L524.458 149.362Z" fill="#0A3170"/>
<path d="M538.696 144.386L537.411 145.673L542.342 150.597L543.627 149.31L538.696 144.386Z" fill="#0A3170"/>
<path d="M537.409 149.355L538.695 150.639L543.619 145.708L542.333 144.423L537.409 149.355Z" fill="#0A3170"/>
<path d="M551.649 144.38L550.365 145.666L555.296 150.59L556.581 149.304L551.649 144.38Z" fill="#0A3170"/>
<path d="M550.383 149.334L551.67 150.618L556.594 145.687L555.308 144.403L550.383 149.334Z" fill="#0A3170"/>
<path d="M499.848 157.441L498.563 158.727L503.494 163.652L504.779 162.365L499.848 157.441Z" fill="#0A3170"/>
<path d="M498.562 162.406L499.848 163.69L504.772 158.759L503.486 157.475L498.562 162.406Z" fill="#0A3170"/>
<path d="M512.811 157.452L511.526 158.738L516.457 163.662L517.742 162.376L512.811 157.452Z" fill="#0A3170"/>
<path d="M511.563 162.371L512.849 163.656L517.774 158.726L516.488 157.441L511.563 162.371Z" fill="#0A3170"/>
<path d="M525.781 157.475L524.496 158.761L529.426 163.686L530.711 162.4L525.781 157.475Z" fill="#0A3170"/>
<path d="M524.466 162.389L525.753 163.674L530.677 158.743L529.391 157.458L524.466 162.389Z" fill="#0A3170"/>
<path d="M538.705 157.414L537.42 158.7L542.351 163.624L543.636 162.338L538.705 157.414Z" fill="#0A3170"/>
<path d="M537.441 162.37L538.728 163.654L543.652 158.723L542.365 157.438L537.441 162.37Z" fill="#0A3170"/>
<path d="M551.668 157.426L550.383 158.713L555.315 163.637L556.599 162.351L551.668 157.426Z" fill="#0A3170"/>
<path d="M550.426 162.344L551.712 163.629L556.637 158.698L555.351 157.414L550.426 162.344Z" fill="#0A3170"/>
<path d="M499.856 169.56L498.572 170.847L503.503 175.771L504.787 174.485L499.856 169.56Z" fill="#0A3170"/>
<path d="M498.569 174.525L499.856 175.81L504.78 170.878L503.494 169.594L498.569 174.525Z" fill="#0A3170"/>
<path d="M512.808 169.551L511.524 170.837L516.455 175.762L517.74 174.475L512.808 169.551Z" fill="#0A3170"/>
<path d="M511.571 174.492L512.857 175.777L517.782 170.846L516.496 169.562L511.571 174.492Z" fill="#0A3170"/>
<path d="M525.788 169.595L524.504 170.882L529.434 175.807L530.719 174.52L525.788 169.595Z" fill="#0A3170"/>
<path d="M524.494 174.498L525.781 175.783L530.705 170.852L529.419 169.567L524.494 174.498Z" fill="#0A3170"/>
<path d="M538.713 169.533L537.429 170.819L542.36 175.744L543.645 174.457L538.713 169.533Z" fill="#0A3170"/>
<path d="M537.429 174.499L538.715 175.784L543.64 170.853L542.353 169.568L537.429 174.499Z" fill="#0A3170"/>
<path d="M551.676 169.545L550.391 170.832L555.322 175.756L556.607 174.47L551.676 169.545Z" fill="#0A3170"/>
<path d="M550.434 174.464L551.72 175.749L556.645 170.819L555.359 169.534L550.434 174.464Z" fill="#0A3170"/>
</g>
<mask id="mask12_31_1175" style="mask-type:luminance" maskUnits="userSpaceOnUse" x="422" y="144" width="143" height="143">
<path d="M543.429 265.814C571.195 238.048 571.195 193.03 543.429 165.264C515.663 137.498 470.645 137.498 442.879 165.264C415.113 193.03 415.113 238.048 442.879 265.814C470.645 293.58 515.663 293.58 543.429 265.814Z" fill="white"/>
</mask>
<g mask="url(#mask12_31_1175)">
<path d="M565.438 260.179L564.154 261.465L569.085 266.39L570.37 265.103L565.438 260.179Z" fill="#0A3170"/>
<path d="M564.161 265.117L565.448 266.402L570.372 261.47L569.086 260.186L564.161 265.117Z" fill="#0A3170"/>
<path d="M565.439 273.183L564.155 274.47L569.086 279.394L570.37 278.108L565.439 273.183Z" fill="#0A3170"/>
<path d="M564.146 278.153L565.432 279.438L570.356 274.507L569.07 273.222L564.146 278.153Z" fill="#0A3170"/>
<path d="M565.447 285.302L564.163 286.588L569.094 291.513L570.378 290.226L565.447 285.302Z" fill="#0A3170"/>
<path d="M564.153 290.273L565.439 291.558L570.364 286.626L569.077 285.342L564.153 290.273Z" fill="#0A3170"/>
</g>
<mask id="mask13_31_1175" style="mask-type:luminance" maskUnits="userSpaceOnUse" x="422" y="144" width="143" height="143">
<path d="M543.429 265.814C571.195 238.048 571.195 193.03 543.429 165.264C515.663 137.498 470.645 137.498 442.879 165.264C415.113 193.03 415.113 238.048 442.879 265.814C470.645 293.58 515.663 293.58 543.429 265.814Z" fill="white"/>
</mask>
<g mask="url(#mask13_31_1175)">
<path d="M565.403 221.56L564.118 222.846L569.05 227.77L570.334 226.484L565.403 221.56Z" fill="#0A3170"/>
<path d="M564.174 226.503L565.46 227.788L570.385 222.858L569.099 221.573L564.174 226.503Z" fill="#0A3170"/>
<path d="M565.412 234.587L564.127 235.874L569.059 240.798L570.343 239.511L565.412 234.587Z" fill="#0A3170"/>
<path d="M564.142 239.549L565.428 240.834L570.352 235.903L569.066 234.618L564.142 239.549Z" fill="#0A3170"/>
<path d="M565.421 246.707L564.136 247.993L569.067 252.917L570.352 251.631L565.421 246.707Z" fill="#0A3170"/>
<path d="M564.15 251.669L565.436 252.953L570.36 248.022L569.074 246.738L564.15 251.669Z" fill="#0A3170"/>
</g>
<mask id="mask14_31_1175" style="mask-type:luminance" maskUnits="userSpaceOnUse" x="422" y="144" width="143" height="143">
<path d="M543.429 265.814C571.195 238.048 571.195 193.03 543.429 165.264C515.663 137.498 470.645 137.498 442.879 165.264C415.113 193.03 415.113 238.048 442.879 265.814C470.645 293.58 515.663 293.58 543.429 265.814Z" fill="white"/>
</mask>
<g mask="url(#mask14_31_1175)">
<path d="M565.378 182.966L564.093 184.252L569.024 189.177L570.309 187.89L565.378 182.966Z" fill="#0A3170"/>
<path d="M564.089 187.933L565.376 189.218L570.3 184.287L569.013 183.002L564.089 187.933Z" fill="#0A3170"/>
<path d="M565.385 195.992L564.101 197.278L569.032 202.203L570.317 200.916L565.385 195.992Z" fill="#0A3170"/>
<path d="M564.156 200.933L565.442 202.218L570.367 197.288L569.081 196.003L564.156 200.933Z" fill="#0A3170"/>
<path d="M565.394 208.111L564.109 209.398L569.04 214.322L570.325 213.036L565.394 208.111Z" fill="#0A3170"/>
<path d="M564.165 213.053L565.451 214.338L570.376 209.408L569.09 208.123L564.165 213.053Z" fill="#0A3170"/>
</g>
<mask id="mask15_31_1175" style="mask-type:luminance" maskUnits="userSpaceOnUse" x="422" y="144" width="143" height="143">
<path d="M543.429 265.814C571.195 238.048 571.195 193.03 543.429 165.264C515.663 137.498 470.645 137.498 442.879 165.264C415.113 193.03 415.113 238.048 442.879 265.814C470.645 293.58 515.663 293.58 543.429 265.814Z" fill="white"/>
</mask>
<g mask="url(#mask15_31_1175)">
<path d="M565.35 144.368L564.065 145.654L568.996 150.579L570.281 149.292L565.35 144.368Z" fill="#0A3170"/>
<path d="M564.066 149.337L565.352 150.622L570.276 145.691L568.99 144.406L564.066 149.337Z" fill="#0A3170"/>
<path d="M565.359 157.396L564.075 158.682L569.006 163.607L570.29 162.32L565.359 157.396Z" fill="#0A3170"/>
<path d="M564.071 162.366L565.358 163.651L570.282 158.72L568.995 157.435L564.071 162.366Z" fill="#0A3170"/>
<path d="M565.367 169.515L564.082 170.801L569.014 175.726L570.298 174.439L565.367 169.515Z" fill="#0A3170"/>
<path d="M564.078 174.486L565.365 175.771L570.289 170.839L569.002 169.555L564.078 174.486Z" fill="#0A3170"/>
</g>
<path d="M328.674 459.817H237.162L282.918 380.565L328.674 459.817ZM243.318 456.262H322.515L282.917 387.675L243.318 456.262Z" fill="#0A3170"/>
<path d="M334.231 432.975L282.494 433.73L282.509 434.732L334.246 433.977L334.231 432.975Z" fill="#0A3170"/>
<path d="M276.078 433.848L255.29 434.15L255.304 435.152L276.093 434.85L276.078 433.848Z" fill="#0A3170"/>
<path d="M246.35 434.258L237.137 434.392L237.151 435.394L246.364 435.26L246.35 434.258Z" fill="#0A3170"/>
<path d="M233.343 434.456L227.438 434.543L227.452 435.545L233.358 435.458L233.343 434.456Z" fill="#0A3170"/>
<path d="M222.959 434.601L217.998 434.673L218.012 435.675L222.974 435.603L222.959 434.601Z" fill="#0A3170"/>
<path d="M355.057 421.513L303.32 422.269L303.334 423.271L355.071 422.515L355.057 421.513Z" fill="#0A3170"/>
<path d="M296.904 422.389L276.115 422.691L276.13 423.693L296.919 423.391L296.904 422.389Z" fill="#0A3170"/>
<path d="M267.175 422.796L257.962 422.931L257.977 423.933L267.19 423.798L267.175 422.796Z" fill="#0A3170"/>
<path d="M254.175 422.99L248.27 423.077L248.285 424.079L254.19 423.992L254.175 422.99Z" fill="#0A3170"/>
<path d="M243.794 423.135L238.832 423.207L238.847 424.209L243.808 424.136L243.794 423.135Z" fill="#0A3170"/>
<path d="M301.147 253.472C299.218 253.472 297.277 253.339 295.333 253.069C284.303 251.539 274.528 245.806 267.81 236.925C261.092 228.044 258.235 217.078 259.764 206.047C261.294 195.017 267.027 185.242 275.909 178.524C284.79 171.806 295.756 168.948 306.787 170.478C317.817 172.007 327.592 177.741 334.31 186.623C341.028 195.504 343.886 206.47 342.356 217.501C340.826 228.532 335.093 238.306 326.211 245.024C318.895 250.558 310.163 253.472 301.147 253.472ZM301.033 173.635C282.309 173.635 265.928 187.475 263.285 206.535C261.886 216.625 264.5 226.656 270.645 234.78C276.79 242.904 285.732 248.149 295.822 249.548C305.911 250.947 315.942 248.333 324.067 242.189C332.191 236.044 337.436 227.102 338.835 217.013C340.234 206.923 337.621 196.892 331.475 188.768C325.33 180.644 316.389 175.399 306.299 174C304.529 173.755 302.771 173.635 301.033 173.635Z" fill="#0A3170"/>
<path d="M301.086 224.658C300.49 224.658 299.89 224.617 299.29 224.534C295.882 224.061 292.862 222.29 290.786 219.546C288.71 216.802 287.827 213.414 288.3 210.006C288.773 206.598 290.544 203.578 293.288 201.502C296.032 199.426 299.42 198.543 302.828 199.016C306.236 199.489 309.256 201.26 311.332 204.004C313.408 206.748 314.291 210.136 313.818 213.544C313.345 216.952 311.574 219.972 308.83 222.048C306.57 223.757 303.872 224.658 301.086 224.658ZM301.051 199.99C295.266 199.99 290.205 204.266 289.388 210.155C288.956 213.272 289.763 216.372 291.662 218.882C293.561 221.392 296.323 223.013 299.441 223.445C302.558 223.877 305.658 223.07 308.168 221.171C310.678 219.272 312.299 216.51 312.731 213.392C313.163 210.274 312.356 207.175 310.457 204.665C308.558 202.155 305.796 200.534 302.678 200.102C302.132 200.027 301.588 199.99 301.051 199.99Z" fill="#0A3170" stroke="#3D3D3D" stroke-width="1.0157" stroke-miterlimit="10"/>
<path d="M248.367 170.243L247.458 171.465L356.643 252.72L357.552 251.499L248.367 170.243Z" fill="#0A3170"/>
<path d="M322.963 341.578C321.516 341.578 320.06 341.478 318.601 341.276C310.327 340.129 302.994 335.828 297.955 329.166C292.915 322.504 290.772 314.278 291.92 306.003C293.068 297.729 297.368 290.397 304.031 285.357C310.693 280.318 318.919 278.174 327.194 279.322C335.468 280.469 342.801 284.77 347.84 291.433C352.88 298.095 355.023 306.321 353.875 314.596C352.728 322.87 348.427 330.203 341.764 335.242C336.276 339.392 329.726 341.578 322.963 341.578ZM322.878 281.69C308.832 281.69 296.545 292.072 294.562 306.37C293.513 313.939 295.473 321.463 300.083 327.557C304.693 333.651 311.4 337.585 318.969 338.635C326.537 339.684 334.062 337.724 340.156 333.114C346.25 328.504 350.184 321.797 351.234 314.228C352.284 306.659 350.323 299.135 345.713 293.041C341.103 286.947 334.396 283.013 326.827 281.963C325.5 281.779 324.181 281.69 322.878 281.69Z" fill="#0A3170"/>
<path d="M322.948 334.44C321.831 334.44 320.707 334.363 319.582 334.207C313.196 333.322 307.537 330.002 303.648 324.86C299.758 319.718 298.104 313.369 298.99 306.983C299.876 300.597 303.195 294.938 308.337 291.049C313.479 287.16 319.827 285.505 326.213 286.391C332.599 287.276 338.258 290.596 342.147 295.738C346.036 300.88 347.691 307.228 346.805 313.614C345.919 320 342.6 325.659 337.458 329.548C333.223 332.752 328.167 334.44 322.948 334.44ZM322.882 288.219C312.042 288.219 302.558 296.232 301.028 307.266C300.218 313.108 301.731 318.915 305.289 323.618C308.847 328.321 314.023 331.358 319.865 332.168C325.706 332.978 331.513 331.465 336.217 327.907C340.92 324.349 343.957 319.173 344.767 313.331C345.577 307.49 344.064 301.682 340.506 296.979C336.948 292.276 331.772 289.239 325.93 288.429C324.906 288.288 323.888 288.219 322.882 288.219Z" fill="#0A3170"/>
<path d="M322.929 325.296C322.235 325.296 321.537 325.248 320.838 325.151C316.871 324.601 313.355 322.539 310.939 319.344C308.523 316.15 307.495 312.205 308.045 308.238C308.595 304.271 310.657 300.755 313.852 298.339C317.046 295.923 320.99 294.895 324.958 295.445C328.925 295.995 332.441 298.057 334.857 301.252C337.273 304.446 338.301 308.39 337.751 312.358C337.201 316.326 335.139 319.841 331.944 322.258C329.312 324.248 326.172 325.296 322.929 325.296ZM322.888 296.581C316.153 296.581 310.262 301.559 309.311 308.415C308.808 312.044 309.748 315.652 311.958 318.574C314.168 321.496 317.384 323.382 321.013 323.886C324.642 324.389 328.25 323.449 331.172 321.239C334.094 319.029 335.98 315.813 336.484 312.184C336.987 308.555 336.047 304.947 333.837 302.025C331.627 299.103 328.411 297.217 324.782 296.713C324.146 296.624 323.513 296.581 322.888 296.581Z" fill="#0A3170"/>
<path d="M322.912 317.296C322.588 317.296 322.263 317.274 321.936 317.228C320.085 316.971 318.444 316.009 317.317 314.519C316.19 313.028 315.71 311.188 315.967 309.337C316.224 307.486 317.186 305.846 318.676 304.718C320.166 303.591 322.007 303.111 323.858 303.368C325.709 303.625 327.349 304.587 328.477 306.077C329.605 307.568 330.084 309.408 329.827 311.259C329.57 313.11 328.608 314.75 327.118 315.878C325.891 316.807 324.425 317.296 322.912 317.296ZM322.893 303.898C319.751 303.898 317.002 306.221 316.558 309.419C316.323 311.112 316.762 312.796 317.793 314.159C318.824 315.522 320.325 316.403 322.018 316.637C323.711 316.872 325.394 316.433 326.758 315.402C328.121 314.371 329.001 312.87 329.236 311.177C329.471 309.484 329.032 307.8 328.001 306.437C326.97 305.074 325.469 304.194 323.776 303.959C323.48 303.918 323.185 303.898 322.893 303.898Z" fill="#0A3170"/>
<path d="M697.448 115.683H585.06V173.3H697.448V115.683Z" fill="#0A3170"/>
<path d="M700.246 148.4L702.403 146.243L694.132 137.972L691.975 140.129L700.246 148.4Z" fill="#0A3170"/>
<path d="M702.379 140.136L700.221 137.979L691.95 146.249L694.108 148.407L702.379 140.136Z" fill="#0A3170"/>
<path d="M678.505 148.401L680.662 146.243L672.391 137.972L670.234 140.13L678.505 148.401Z" fill="#0A3170"/>
<path d="M680.639 140.136L678.482 137.979L670.211 146.25L672.368 148.407L680.639 140.136Z" fill="#0A3170"/>
<path d="M656.756 148.387L658.914 146.229L650.643 137.958L648.486 140.116L656.756 148.387Z" fill="#0A3170"/>
<path d="M658.912 140.127L656.755 137.969L648.484 146.24L650.642 148.398L658.912 140.127Z" fill="#0A3170"/>
<path d="M635.024 148.401L637.182 146.243L628.911 137.972L626.753 140.13L635.024 148.401Z" fill="#0A3170"/>
<path d="M637.159 140.135L635.002 137.978L626.731 146.249L628.888 148.406L637.159 140.135Z" fill="#0A3170"/>
<path d="M613.283 148.401L615.441 146.244L607.17 137.973L605.012 140.13L613.283 148.401Z" fill="#0A3170"/>
<path d="M615.42 140.135L613.262 137.978L604.991 146.249L607.149 148.406L615.42 140.135Z" fill="#0A3170"/>
<path d="M700.255 126.546L702.412 124.389L694.141 116.118L691.984 118.275L700.255 126.546Z" fill="#0A3170"/>
<path d="M702.393 118.26L700.235 116.102L691.964 124.373L694.122 126.531L702.393 118.26Z" fill="#0A3170"/>
<path d="M678.514 126.546L680.671 124.389L672.4 116.118L670.243 118.275L678.514 126.546Z" fill="#0A3170"/>
<path d="M680.653 118.26L678.495 116.103L670.224 124.374L672.382 126.531L680.653 118.26Z" fill="#0A3170"/>
<path d="M656.765 126.532L658.922 124.375L650.651 116.104L648.494 118.261L656.765 126.532Z" fill="#0A3170"/>
<path d="M658.925 118.251L656.768 116.094L648.497 124.364L650.654 126.522L658.925 118.251Z" fill="#0A3170"/>
<path d="M635.032 126.546L637.19 124.388L628.919 116.117L626.761 118.275L635.032 126.546Z" fill="#0A3170"/>
<path d="M637.172 118.26L635.015 116.103L626.744 124.374L628.901 126.531L637.172 118.26Z" fill="#0A3170"/>
<path d="M613.291 126.546L615.449 124.388L607.178 116.117L605.02 118.275L613.291 126.546Z" fill="#0A3170"/>
<path d="M615.432 118.261L613.275 116.103L605.004 124.374L607.161 126.532L615.432 118.261Z" fill="#0A3170"/>
<path d="M700.245 106.19L702.403 104.033L694.132 95.762L691.974 97.9194L700.245 106.19Z" fill="#0A3170"/>
<path d="M702.393 97.9179L700.235 95.7605L691.964 104.031L694.122 106.189L702.393 97.9179Z" fill="#0A3170"/>
<path d="M678.504 106.191L680.662 104.033L672.391 95.7623L670.233 97.9196L678.504 106.191Z" fill="#0A3170"/>
<path d="M680.653 97.9182L678.495 95.7609L670.224 104.032L672.382 106.189L680.653 97.9182Z" fill="#0A3170"/>
<path d="M656.755 106.177L658.912 104.02L650.642 95.7491L648.484 97.9064L656.755 106.177Z" fill="#0A3170"/>
<path d="M658.925 97.9087L656.768 95.7513L648.497 104.022L650.654 106.18L658.925 97.9087Z" fill="#0A3170"/>
<path d="M635.024 106.191L637.181 104.033L628.91 95.7625L626.753 97.9199L635.024 106.191Z" fill="#0A3170"/>
<path d="M637.172 97.9184L635.015 95.761L626.744 104.032L628.901 106.189L637.172 97.9184Z" fill="#0A3170"/>
<path d="M613.283 106.191L615.44 104.034L607.169 95.7627L605.012 97.9201L613.283 106.191Z" fill="#0A3170"/>
<path d="M615.432 97.9189L613.275 95.7615L605.004 104.032L607.161 106.19L615.432 97.9189Z" fill="#0A3170"/>
<path d="M695.287 208.427C695.287 209.443 695.287 235.344 695.287 235.344L680.051 221.632L695.287 208.427Z" fill="#0A3170"/>
<path d="M695.287 235.343C695.287 236.359 695.287 262.26 695.287 262.26L680.051 248.548L695.287 235.343Z" fill="#0A3170"/>
<path d="M695.287 262.26C695.287 263.276 695.287 289.177 695.287 289.177L680.051 275.465L695.287 262.26Z" fill="#0A3170"/>
<path d="M243.749 395.319H213.454L228.887 378.171L243.749 395.319ZM216.875 393.795H240.412L228.865 380.472L216.875 393.795Z" fill="#0A3170"/>
<path d="M216.833 395.319H186.537L201.97 378.171L216.833 395.319ZM189.959 393.795H213.497L201.95 380.472L189.959 393.795Z" fill="#0A3170"/>
<path d="M189.917 395.319H159.621L175.054 378.171L189.917 395.319ZM163.042 393.795H186.58L175.033 380.472L163.042 393.795Z" fill="#0A3170"/>
<path d="M391.549 112.43H359.943L375.746 85.059L391.549 112.43ZM362.07 111.202H389.423L375.747 87.514L362.07 111.202Z" fill="#0A3170"/>
<path d="M12.168 329.805H43.774L27.971 357.176L12.168 329.805ZM41.647 331.033H14.295L27.971 354.721L41.647 331.033Z" fill="#0A3170"/>
<path d="M434.071 403.424C433.827 403.424 433.582 403.407 433.337 403.373C431.944 403.18 430.71 402.456 429.861 401.334C429.013 400.213 428.652 398.828 428.845 397.435C429.038 396.042 429.762 394.808 430.884 393.959C432.005 393.111 433.39 392.75 434.783 392.943C436.176 393.136 437.41 393.86 438.259 394.982C439.107 396.104 439.468 397.488 439.275 398.881C439.082 400.274 438.358 401.508 437.236 402.357C436.312 403.056 435.21 403.424 434.071 403.424ZM434.057 393.342C431.692 393.342 429.624 395.09 429.29 397.497C429.113 398.771 429.443 400.038 430.219 401.064C430.995 402.09 432.124 402.752 433.398 402.929C434.672 403.106 435.939 402.776 436.965 402C437.991 401.224 438.653 400.095 438.83 398.821C439.007 397.547 438.677 396.28 437.901 395.254C437.125 394.228 435.996 393.566 434.722 393.389C434.498 393.357 434.276 393.342 434.057 393.342Z" fill="#0A3170"/>
<path d="M179.187 136.403C178.891 136.403 178.593 136.383 178.295 136.341C176.604 136.106 175.104 135.227 174.074 133.865C173.044 132.503 172.606 130.821 172.84 129.13C173.075 127.439 173.954 125.94 175.316 124.909C176.678 123.879 178.36 123.441 180.051 123.675C181.742 123.909 183.241 124.789 184.272 126.151C185.302 127.513 185.74 129.195 185.506 130.886C185.271 132.577 184.392 134.076 183.03 135.107C181.908 135.956 180.569 136.403 179.187 136.403ZM179.169 124.16C176.298 124.16 173.786 126.282 173.38 129.205C173.166 130.752 173.566 132.29 174.509 133.536C175.451 134.782 176.823 135.586 178.37 135.801C179.917 136.015 181.455 135.615 182.701 134.672C183.947 133.73 184.751 132.359 184.966 130.811C185.181 129.264 184.78 127.726 183.837 126.48C182.894 125.234 181.523 124.43 179.976 124.215C179.705 124.178 179.436 124.16 179.169 124.16Z" fill="#0A3170"/>
<path d="M633.673 208.251C633.131 208.251 632.586 208.214 632.04 208.138C628.942 207.708 626.196 206.098 624.309 203.603C622.422 201.108 621.619 198.028 622.049 194.929C622.479 191.831 624.089 189.085 626.584 187.198C629.079 185.311 632.159 184.508 635.258 184.938C638.357 185.368 641.102 186.978 642.989 189.473C644.876 191.968 645.679 195.048 645.249 198.147C644.819 201.246 643.209 203.991 640.714 205.878C638.659 207.433 636.206 208.251 633.673 208.251ZM633.641 185.825C628.381 185.825 623.78 189.713 623.037 195.067C622.644 197.901 623.378 200.719 625.104 203.001C626.83 205.283 629.342 206.756 632.176 207.149C635.01 207.542 637.828 206.808 640.11 205.082C642.392 203.356 643.865 200.844 644.258 198.01C644.651 195.176 643.917 192.358 642.191 190.076C640.465 187.794 637.953 186.321 635.119 185.928C634.623 185.858 634.129 185.825 633.641 185.825Z" fill="#0A3170"/>
<path d="M445.861 113.997C445.319 113.997 444.774 113.96 444.228 113.884C441.129 113.454 438.384 111.844 436.497 109.349C434.61 106.854 433.807 103.774 434.237 100.675C434.667 97.577 436.277 94.831 438.772 92.944C441.267 91.057 444.347 90.254 447.446 90.684C450.544 91.114 453.29 92.724 455.177 95.219C457.064 97.714 457.867 100.794 457.437 103.893C457.007 106.992 455.397 109.737 452.902 111.624C450.847 113.179 448.394 113.997 445.861 113.997ZM445.829 91.571C440.569 91.571 435.968 95.459 435.225 100.813C434.832 103.647 435.566 106.465 437.292 108.747C439.018 111.029 441.53 112.502 444.364 112.895C447.198 113.288 450.016 112.554 452.298 110.828C454.58 109.102 456.053 106.59 456.446 103.756C456.839 100.922 456.105 98.104 454.379 95.822C452.653 93.54 450.141 92.067 447.307 91.674C446.811 91.604 446.317 91.571 445.829 91.571Z" fill="#0A3170"/>
<path d="M167.517 468.275C166.975 468.275 166.43 468.238 165.884 468.162C162.786 467.732 160.04 466.122 158.153 463.627C156.266 461.132 155.463 458.052 155.893 454.953C156.323 451.854 157.933 449.109 160.428 447.222C162.923 445.335 166.003 444.532 169.102 444.962C172.2 445.392 174.946 447.002 176.833 449.497C178.72 451.992 179.523 455.072 179.093 458.171C178.663 461.27 177.053 464.015 174.558 465.902C172.503 467.457 170.05 468.275 167.517 468.275ZM167.485 445.849C162.225 445.849 157.624 449.737 156.881 455.091C156.488 457.925 157.222 460.743 158.948 463.025C160.674 465.307 163.186 466.78 166.02 467.173C168.854 467.566 171.672 466.832 173.954 465.106C176.236 463.38 177.709 460.868 178.102 458.034C178.495 455.2 177.761 452.382 176.035 450.1C174.309 447.818 171.797 446.345 168.963 445.952C168.467 445.882 167.973 445.849 167.485 445.849Z" fill="#0A3170"/>
<path d="M166.271 35.5648L166.659 34.6843L159.893 31.7076L159.505 32.5881L166.271 35.5648Z" fill="#0A3170"/>
<path d="M164.995 30.4406L164.171 30.0782L161.195 36.8449L162.019 37.2072L164.995 30.4406Z" fill="#0A3170"/>
<path d="M339.135 376.526L340.469 373.493L317.148 363.236L315.814 366.27L339.135 376.526Z" fill="#0A3170"/>
<path d="M334.72 358.815L331.881 357.566L321.624 380.887L324.463 382.136L334.72 358.815Z" fill="#0A3170"/>
<path d="M657.62 55.3484L660.924 55.6033L662.883 30.2037L659.579 29.9488L657.62 55.3484Z" fill="#0A3170"/>
<path d="M672.793 45.2854L673.032 42.1927L647.632 40.2336L647.393 43.3263L672.793 45.2854Z" fill="#0A3170"/>
<path d="M69.0499 259.528L72.354 259.782L74.3131 234.383L71.009 234.128L69.0499 259.528Z" fill="#0A3170"/>
<path d="M84.2611 249.464L84.4996 246.371L59.1001 244.412L58.8615 247.505L84.2611 249.464Z" fill="#0A3170"/>
<path d="M150.921 325.234C150.921 326.917 149.557 328.281 147.874 328.281C146.191 328.281 144.827 326.917 144.827 325.234C144.827 323.551 146.191 322.187 147.874 322.187C149.556 322.187 150.921 323.551 150.921 325.234Z" fill="#0A3170"/>
<path d="M178.853 91.365C178.853 92.627 177.83 93.65 176.568 93.65C175.306 93.65 174.283 92.627 174.283 91.365C174.283 90.103 175.306 89.08 176.568 89.08C177.829 89.08 178.853 90.103 178.853 91.365Z" fill="#0A3170"/>
<path d="M593.207 200.809C593.207 203.053 591.388 204.872 589.144 204.872C586.9 204.872 585.081 203.053 585.081 200.809C585.081 198.565 586.9 196.746 589.144 196.746C591.388 196.746 593.207 198.565 593.207 200.809Z" fill="#0A3170"/>
<path d="M468.782 310.76C468.782 313.425 466.622 315.585 463.957 315.585C461.292 315.585 459.132 313.425 459.132 310.76C459.132 308.095 461.292 305.935 463.957 305.935C466.622 305.935 468.782 308.096 468.782 310.76Z" fill="#0A3170"/>
<path d="M491.635 347.326C485.894 347.326 481.224 342.656 481.224 336.915C481.224 331.174 485.894 326.504 491.635 326.504C497.376 326.504 502.046 331.174 502.046 336.915C502.047 342.656 497.376 347.326 491.635 347.326ZM491.635 328.027C486.735 328.027 482.748 332.014 482.748 336.915C482.748 341.815 486.735 345.802 491.635 345.802C496.536 345.802 500.523 341.815 500.523 336.915C500.523 332.014 496.536 328.027 491.635 328.027Z" fill="#0A3170"/>
<path d="M404.764 72.9241C403.473 74.7591 400.938 75.2001 399.103 73.9081C397.268 72.6171 396.827 70.0821 398.119 68.2471C399.41 66.4121 401.945 65.9711 403.78 67.2631C405.614 68.5541 406.055 71.0881 404.764 72.9241Z" fill="#0A3170"/>
<path d="M401.441 79.6951C396.418 79.6951 392.332 75.6091 392.332 70.5861C392.332 65.5631 396.418 61.4771 401.441 61.4771C406.464 61.4771 410.55 65.5631 410.55 70.5861C410.55 75.6081 406.464 79.6951 401.441 79.6951ZM401.441 62.8091C397.153 62.8091 393.665 66.2971 393.665 70.5851C393.665 74.8731 397.153 78.3611 401.441 78.3611C405.729 78.3611 409.217 74.8721 409.217 70.5851C409.217 66.2981 405.729 62.8091 401.441 62.8091Z" fill="#0A3170"/>
<path d="M187.29 354.496C185.999 356.331 183.464 356.772 181.629 355.48C179.794 354.189 179.353 351.654 180.645 349.819C181.936 347.984 184.471 347.543 186.306 348.835C188.141 350.126 188.581 352.661 187.29 354.496Z" fill="#0A3170"/>
<path d="M183.967 361.267C178.944 361.267 174.858 357.181 174.858 352.158C174.858 347.135 178.944 343.049 183.967 343.049C188.99 343.049 193.076 347.135 193.076 352.158C193.077 357.181 188.99 361.267 183.967 361.267ZM183.967 344.382C179.679 344.382 176.191 347.87 176.191 352.158C176.191 356.446 179.68 359.934 183.967 359.934C188.254 359.934 191.743 356.446 191.743 352.158C191.744 347.87 188.255 344.382 183.967 344.382Z" fill="#0A3170"/>
<path d="M190.026 218.076C190.026 219.759 188.662 221.123 186.979 221.123C185.296 221.123 183.932 219.759 183.932 218.076C183.932 216.393 185.296 215.029 186.979 215.029C188.661 215.029 190.026 216.393 190.026 218.076Z" fill="#0A3170"/>
<path d="M22.94 138.85C22.94 140.533 21.576 141.897 19.893 141.897C18.21 141.897 16.846 140.533 16.846 138.85C16.846 137.167 18.21 135.803 19.893 135.803C21.576 135.803 22.94 137.167 22.94 138.85Z" fill="#0A3170"/>
<path d="M20.147 450.168C24.4946 450.168 28.019 446.644 28.019 442.296C28.019 437.948 24.4946 434.424 20.147 434.424C15.7994 434.424 12.275 437.948 12.275 442.296C12.275 446.644 15.7994 450.168 20.147 450.168Z" fill="#0A3170"/>
<path d="M548.409 359.261H580.015L564.212 386.632L548.409 359.261ZM577.888 360.489H550.535L564.211 384.177L577.888 360.489Z" fill="#0A3170"/>
<path d="M543.326 371.168L547.952 379.18L552.578 387.193H543.326H534.074L538.7 379.18L543.326 371.168Z" fill="#0A3170"/>
<path d="M368.037 140.508L363.41 132.495L358.784 124.483H368.037H377.289L372.663 132.495L368.037 140.508Z" fill="#0A3170"/>
<path d="M27.908 339.228L23.282 331.215L18.656 323.203H27.908H37.16L32.534 331.215L27.908 339.228Z" fill="#0A3170"/>
<path d="M27.908 393.569L23.282 385.556L18.656 377.544H27.908H37.16L32.534 385.556L27.908 393.569Z" fill="#0A3170"/>
<path d="M555.118 447.628H485.541V453.215H555.118V447.628Z" fill="#0A3170"/>
<path d="M555.118 436.963H485.541V442.55H555.118V436.963Z" fill="#0A3170"/>
<path d="M303.024 79.6842V149.261H308.61V79.6842H303.024Z" fill="#0A3170"/>
<path d="M292.36 79.6842V149.261H297.946V79.6842H292.36Z" fill="#0A3170"/>
<path d="M413.171 305.682H396.92V289.43H413.172V305.682H413.171ZM398.443 304.158H411.647V290.954H398.443V304.158Z" fill="#0A3170"/>
<path d="M413.425 330.313H397.174V314.062H413.425V330.313ZM398.697 328.789H411.901V315.585H398.697V328.789Z" fill="#0A3170"/>
<path d="M413.425 354.69H397.174V338.439H413.425V354.69ZM398.697 353.167H411.901V339.963H398.697V353.167Z" fill="#0A3170"/>
<path d="M413.425 379.067H397.174V362.816H413.425V379.067ZM398.697 377.544H411.901V364.34H398.697V377.544Z" fill="#0A3170"/>
<path d="M434.376 34.478V46.034H422.82V34.478H434.376ZM433.293 44.95V35.561H423.904V44.95H433.293Z" fill="#0A3170"/>
<path d="M451.89 34.298V45.854H440.334V34.298H451.89ZM450.807 44.77V35.381H441.418V44.77H450.807Z" fill="#0A3170"/>
<path d="M469.223 34.298V45.854H457.667V34.298H469.223ZM468.14 44.77V35.381H458.751V44.77H468.14Z" fill="#0A3170"/>
<path d="M486.557 34.298V45.854H475.001V34.298H486.557ZM485.473 44.77V35.381H476.084V44.77H485.473Z" fill="#0A3170"/>
<path d="M440.177 138.123H437.577V144.624H440.177V138.123Z" fill="#0A3170"/>
<path d="M440.177 138.123H437.577V144.624H440.177V138.123Z" fill="#0A3170"/>
<path d="M440.177 245.383H437.577V251.884H440.177V245.383Z" fill="#0A3170"/>
<path d="M388.497 193.703H381.997V196.303H388.497V193.703Z" fill="#0A3170"/>
<path d="M388.497 193.703H381.997V196.303H388.497V193.703Z" fill="#0A3170"/>
<path d="M495.757 193.703H489.257V196.303H495.757V193.703Z" fill="#0A3170"/>
<path d="M399.582 153.888L397.743 155.727L402.34 160.323L404.179 158.485L399.582 153.888Z" fill="#0A3170"/>
<path d="M399.582 153.888L397.743 155.727L402.34 160.323L404.179 158.485L399.582 153.888Z" fill="#0A3170"/>
<path d="M475.425 229.738L473.586 231.577L478.183 236.174L480.022 234.335L475.425 229.738Z" fill="#0A3170"/>
<path d="M402.328 229.706L397.732 234.304L399.57 236.142L404.167 231.544L402.328 229.706Z" fill="#0A3170"/>
<path d="M402.328 229.706L397.732 234.304L399.57 236.142L404.167 231.544L402.328 229.706Z" fill="#0A3170"/>
<path d="M478.172 153.862L473.576 158.46L475.415 160.298L480.011 155.701L478.172 153.862Z" fill="#0A3170"/>
<path d="M427.186 139.317L424.654 139.91L426.136 146.24L428.668 145.647L427.186 139.317Z" fill="#0A3170"/>
<path d="M427.186 139.317L424.654 139.91L426.136 146.24L428.668 145.647L427.186 139.317Z" fill="#0A3170"/>
<path d="M451.636 243.754L449.104 244.347L450.586 250.677L453.118 250.084L451.636 243.754Z" fill="#0A3170"/>
<path d="M389.51 205.218L383.18 206.701L383.773 209.232L390.103 207.749L389.51 205.218Z" fill="#0A3170"/>
<path d="M389.51 205.218L383.18 206.701L383.773 209.232L390.103 207.749L389.51 205.218Z" fill="#0A3170"/>
<path d="M493.946 180.755L487.616 182.238L488.209 184.769L494.539 183.286L493.946 180.755Z" fill="#0A3170"/>
<path d="M391.237 163.896L389.866 166.105L395.39 169.533L396.761 167.324L391.237 163.896Z" fill="#0A3170"/>
<path d="M391.237 163.896L389.866 166.105L395.39 169.533L396.761 167.324L391.237 163.896Z" fill="#0A3170"/>
<path d="M482.372 220.455L481.001 222.664L486.525 226.092L487.896 223.883L482.372 220.455Z" fill="#0A3170"/>
<path d="M411.19 237.107L407.761 242.631L409.97 244.002L413.399 238.479L411.19 237.107Z" fill="#0A3170"/>
<path d="M411.19 237.107L407.761 242.631L409.97 244.002L413.399 238.479L411.19 237.107Z" fill="#0A3170"/>
<path d="M467.758 145.989L464.329 151.512L466.538 152.883L469.967 147.36L467.758 145.989Z" fill="#0A3170"/>
<path d="M419.117 141.642L416.7 142.602L419.098 148.644L421.515 147.685L419.117 141.642Z" fill="#0A3170"/>
<path d="M419.117 141.642L416.7 142.602L419.098 148.644L421.515 147.685L419.117 141.642Z" fill="#0A3170"/>
<path d="M458.687 241.339L456.27 242.298L458.668 248.341L461.086 247.381L458.687 241.339Z" fill="#0A3170"/>
<path d="M391.584 212.384L385.541 214.782L386.5 217.198L392.543 214.8L391.584 212.384Z" fill="#0A3170"/>
<path d="M391.584 212.384L385.541 214.782L386.5 217.198L392.543 214.8L391.584 212.384Z" fill="#0A3170"/>
<path d="M491.282 172.822L485.24 175.22L486.199 177.637L492.241 175.238L491.282 172.822Z" fill="#0A3170"/>
<path d="M387.166 171.242L386.135 173.629L392.103 176.206L393.134 173.819L387.166 171.242Z" fill="#0A3170"/>
<path d="M387.166 171.242L386.135 173.629L392.103 176.206L393.134 173.819L387.166 171.242Z" fill="#0A3170"/>
<path d="M485.635 213.753L484.604 216.14L490.572 218.717L491.602 216.33L485.635 213.753Z" fill="#0A3170"/>
<path d="M417.705 240.747L415.129 246.715L417.516 247.745L420.092 241.778L417.705 240.747Z" fill="#0A3170"/>
<path d="M417.705 240.747L415.129 246.715L417.516 247.745L420.092 241.778L417.705 240.747Z" fill="#0A3170"/>
<path d="M460.226 142.276L457.65 148.244L460.038 149.275L462.614 143.307L460.226 142.276Z" fill="#0A3170"/>
<path d="M407.483 147.564L405.349 149.049L409.061 154.386L411.195 152.901L407.483 147.564Z" fill="#0A3170"/>
<path d="M407.483 147.564L405.349 149.049L409.061 154.386L411.195 152.901L407.483 147.564Z" fill="#0A3170"/>
<path d="M468.736 235.62L466.601 237.105L470.313 242.442L472.448 240.958L468.736 235.62Z" fill="#0A3170"/>
<path d="M396.782 222.681L391.445 226.394L392.93 228.528L398.267 224.816L396.782 222.681Z" fill="#0A3170"/>
<path d="M396.782 222.681L391.445 226.394L392.93 228.528L398.267 224.816L396.782 222.681Z" fill="#0A3170"/>
<path d="M484.808 161.466L479.472 165.177L480.957 167.311L486.293 163.6L484.808 161.466Z" fill="#0A3170"/>
<path d="M383.132 183.66L382.672 186.219L389.071 187.368L389.531 184.809L383.132 183.66Z" fill="#0A3170"/>
<path d="M383.132 183.66L382.672 186.219L389.071 187.368L389.531 184.809L383.132 183.66Z" fill="#0A3170"/>
<path d="M488.697 202.606L488.238 205.165L494.637 206.314L495.096 203.755L488.697 202.606Z" fill="#0A3170"/>
<path d="M428.679 244.336L427.531 250.735L430.09 251.195L431.238 244.796L428.679 244.336Z" fill="#0A3170"/>
<path d="M428.679 244.336L427.531 250.735L430.09 251.195L431.238 244.796L428.679 244.336Z" fill="#0A3170"/>
<path d="M447.643 138.776L446.495 145.175L449.054 145.634L450.202 139.235L447.643 138.776Z" fill="#0A3170"/>
</svg>
