<svg width="1827" height="585" viewBox="0 0 1827 585" fill="none" xmlns="http://www.w3.org/2000/svg">
<path d="M526.667 15.9335C525.867 24.6001 524.933 32.4668 524.667 33.2668C524.133 34.6001 509.6 35.0001 457.467 35.0001H390.933L390.133 41.2668C389.6 44.8668 383.867 99.2668 377.333 162.333C370.8 225.4 364.4 281.8 363.2 287.667C356.133 323.267 340.133 349 314.133 366.2C292.8 380.467 270.133 386.6 243.333 385.267C191.333 382.733 161.333 348.067 161.333 290.6C161.333 278.733 181.733 72.4668 186 40.6001L186.8 35.0001L119.733 35.2668L52.7999 35.6668L40.2666 152.333C24.1333 303.8 23.4666 322.333 32.7999 359C39.1999 384.333 55.4666 410.867 73.1999 424.867C84.3999 433.533 103.2 443.267 120 448.867C185.2 470.6 305.333 470.6 371.867 448.867C400.533 439.533 422.267 426.867 440.133 409.267C470.133 379.533 488.667 340.067 497.2 287.667C498.667 278.867 505.467 218.467 512.133 153.267L524.533 35.0001H707.6C881.067 35.0001 890.667 35.1335 890.667 37.2668C890.667 38.6001 888.8 56.4668 886.667 77.0001C884.533 97.5335 882.667 115.4 882.667 116.6C882.667 118.867 876 119 766.4 119.267L650 119.667L645.733 159.667C643.333 181.667 641.467 201.267 641.467 203.267L641.333 207H746.8H852.267L851.467 212.6C851.067 215.8 849.2 233.667 847.333 252.333C845.467 271 843.6 287.667 843.2 289.267L842.667 292.333H737.467H632.267L631.467 297.267C631.067 300.067 627.333 334.067 623.333 373C619.333 411.8 615.733 446.2 615.333 449.267L614.533 455H547.867C495.733 455 481.067 455.4 480.667 456.6C480.4 457.533 477.333 484.467 474.133 516.333C470.8 548.2 467.733 576.6 467.333 579.267L466.667 584.333H650C796.667 584.333 833.333 583.933 833.333 582.6C833.333 580.333 845.067 467.667 846 460.6L846.8 455H913.867H980.8L989.467 372.867L998 290.6L1029.33 291.533C1046.53 291.933 1073.6 292.733 1089.6 293.133L1118.4 294.067L1124.8 298.867C1133.07 305.133 1139.07 313 1142.67 322.6C1145.6 330.2 1145.6 331 1144.8 383.667C1144.27 413 1143.6 441 1143.2 445.933L1142.4 455H1275.73H1408.93L1409.73 449.933C1410.13 447.267 1416.93 383.533 1424.8 308.333C1432.53 233.133 1439.33 171.4 1439.73 171C1440 170.6 1440.53 170.867 1440.93 171.667C1441.2 172.333 1477.33 236.333 1521.2 313.667L1600.93 454.333H1692.13H1783.33L1804.93 249.667C1816.8 137.133 1826.53 42.7335 1826.53 39.9335L1826.67 35.0001H1764.67H1702.8L1702.13 39.2668C1701.73 41.6668 1695.33 101.267 1688 171.667C1672.8 317.933 1673.47 312.6 1672.13 311.667C1671.47 311.4 1636.93 249 1595.2 173L1519.33 35.0001H1423.73C1348 35.0001 1328 35.4001 1328 36.6001C1328.13 42.7335 1287.33 426.6 1286.4 427.533C1285.87 428.333 1285.33 413 1285.2 393.533C1285.2 338.333 1283.47 305.4 1280.13 295C1276.8 284.2 1270.27 274.733 1262 269C1253.2 262.733 1230.53 254.733 1213.07 251.8C1209.33 251.133 1208 250.2 1208 248.467C1208 246.6 1210.8 245 1220.93 241.667C1258.8 229.133 1289.47 205.4 1302.53 178.733C1311.47 160.333 1314.67 132.733 1310 114.333C1300.8 78.4668 1263.6 50.8668 1208 38.6001C1195.6 35.9335 1191.73 35.8001 1042.93 35.4001L890.4 34.8668L891.2 29.9335C891.6 27.2668 892.267 21.1335 892.667 16.3335C893.067 11.5335 893.733 6.0668 894.133 3.93347L894.933 0.333466H711.6H528.267L526.667 15.9335ZM1125.2 114.333C1129.87 115.533 1137.87 118.6 1142.8 121.133C1167.47 134.067 1175.33 150.6 1168 173.8C1163.2 188.867 1153.47 199.267 1136.67 207C1121.2 214.2 1113.07 215 1057.33 215H1006.67V211.933C1006.67 207.933 1016.13 116.067 1016.67 113.933C1017.6 111.4 1113.73 111.667 1125.2 114.333ZM526.667 492.867C526.667 498.2 525.2 499 516 499H506.933L506.133 503.933C505.6 506.733 504.933 510.6 504.533 512.6L503.733 516.333H513.333C522.667 516.333 522.933 516.467 522.133 519.267C521.733 521 521.333 522.733 521.333 523.267C521.333 523.933 517.2 524.333 512.133 524.333C501.6 524.333 502.933 522.6 499.867 540.6C498.533 549.267 498.267 549.667 494.8 549.667H491.067L495.6 521.933C498.133 506.733 500.4 493.533 500.667 492.6C501.6 490.067 526.667 490.333 526.667 492.867ZM572 491.933C572 492.6 571.6 494.333 571.2 495.933C570.4 498.733 569.6 499 561.333 499C551.2 499 552.267 497.933 549.867 511.267L549.067 516.333H558.667C566.933 516.333 568.133 516.6 567.467 518.467C567.067 519.667 566.667 521.4 566.667 522.467C566.667 523.933 564.533 524.333 557.467 524.333C547.2 524.333 547.467 523.933 545.867 535.267L545.067 541.667H554.267H563.6L562.933 545.667L562.4 549.667H549.067C537.067 549.667 535.867 549.4 536.533 547.267C536.8 546.067 539.2 532.867 541.6 517.933L545.867 491H558.933C566.133 491 572 491.4 572 491.933ZM619.467 494.6C625.733 499.133 628.533 506.067 628.4 517C628.267 538.867 617.2 549.533 594.4 549.667C587.867 549.667 582.667 549.267 582.667 548.6C582.667 548.067 584.8 535.4 587.333 520.333C589.867 505.267 592 492.467 592 491.933C592 491.267 597.2 491 603.733 491.267C613.067 491.533 616.133 492.2 619.467 494.6ZM677.333 492.867C677.333 498.2 675.867 499 666.667 499H657.6L656.8 503.933C656.267 506.733 655.6 510.6 655.2 512.6L654.4 516.333H664C673.333 516.333 673.6 516.467 672.8 519.267C672.4 521 672 522.733 672 523.267C672 523.933 667.867 524.333 662.8 524.333C652.533 524.333 653.6 523.133 651.2 536.6L650.4 541.667H660C668.267 541.667 669.467 541.933 668.8 543.8C668.4 545 668 546.733 668 547.8C668 549.267 665.333 549.667 654.533 549.667C642.4 549.667 641.2 549.4 641.867 547.267C642.133 546.067 644.533 532.867 646.933 517.933L651.2 491H664.267C674.667 491 677.333 491.4 677.333 492.867ZM720.667 493.133C726.533 495.933 729.867 502.867 728.933 510.467C728.133 518.2 724.933 522.867 718.533 525.533C715.733 526.733 713.333 528.067 713.333 528.733C713.333 529.267 715.467 533.933 718 539C720.533 544.067 722.667 548.6 722.667 549C722.667 549.4 720.933 549.667 718.667 549.667C714.933 549.667 714.267 548.867 708 535.533C704.4 527.667 701.333 521 701.333 520.867C701.333 520.6 703.6 520.333 706.4 520.333C714.133 520.333 717.333 519 719.333 514.867C724 505.933 720 499 710.133 499C705.6 499 704 499.533 703.467 501.267C703.2 502.6 701.2 514.067 699.067 526.6L695.467 549.667H691.6C688.267 549.667 687.867 549.267 688.4 546.6C688.8 545 691.067 531.8 693.467 517.267L697.733 491H707.067C712.667 491 718 491.8 720.667 493.133ZM774.4 516.6C776.933 530.733 779.2 543.933 779.6 545.933C780.267 549.4 780 549.667 776.267 549.667C772.533 549.667 772.267 549.267 771.467 543.267C769.733 531.933 770.267 532.333 759.467 532.333H749.867L745.6 541C742.133 548.2 740.8 549.667 738 549.667C736.133 549.667 734.667 549.133 734.667 548.467C734.667 547.933 738.667 539 743.467 528.867C748.4 518.733 754.267 505.933 756.8 500.6C760.933 491.533 761.467 491 765.6 491H770.133L774.4 516.6ZM806.533 513.267C801.333 543.8 800.933 541.667 810.667 541.667C818.933 541.667 819.867 542.467 817.867 547.533C817.2 549.267 814.8 549.667 805.2 549.667C797.467 549.667 793.333 549.133 793.333 548.2C793.333 546.6 800.8 501 802.133 494.6C802.667 491.667 803.6 491 806.533 491H810.267L806.533 513.267Z" fill="black"/>
<path d="M597.333 501.267C597.333 502.6 595.867 512.334 594.133 522.867L591.067 541.934L599.467 541.4C609.6 540.734 614 538.067 618.4 529.667C623.467 519.667 621.6 506.067 614.533 501.134C612.533 499.8 608.667 499 604.4 499C598.533 499 597.333 499.4 597.333 501.267Z" fill="black"/>
<path d="M759.2 511.667L753.733 523.667L760.267 524.067C764 524.333 767.2 524.2 767.6 523.8C767.867 523.533 767.467 517.933 766.4 511.4L764.667 499.667L759.2 511.667Z" fill="black"/>
<path d="M248.4 491C239.333 494.6 237.333 511 244.933 517.534C247.2 519.4 251.2 522.867 253.867 525.134C257.2 527.934 258.667 530.467 258.667 532.867C258.667 536.734 253.333 543 250 543C246.933 543 242.667 538.067 242.667 534.334C242.667 531.534 242 531 238.667 531C234.133 531 233.733 532.467 236.133 540.734C237.733 546.6 243.733 551 250 551C258.667 551 266.667 542.334 266.667 533C266.667 526.6 262.933 520.6 256.133 515.667C249.067 510.6 247.333 507.4 248.533 502.334C250.133 495.934 259.6 496.467 260.933 503.134C261.467 506.067 262.4 507 264.8 507C268.933 507 269.733 505.134 268 499.667C265.2 491.267 256.933 487.534 248.4 491Z" fill="black"/>
<path d="M925.333 491.134C920.667 493 913.6 500.067 910.533 506.067C907.067 512.6 905.867 525.934 908 533.667C912.8 551.267 933.6 556.467 948 543.534C954.933 537.134 958 528.867 957.867 516.334C957.867 502.734 953.2 494.734 943.6 491.134C938.933 489.4 929.867 489.4 925.333 491.134ZM944.533 501C949.067 505.267 950.667 509.534 950.667 518.2C950.667 535.667 935.867 547.8 922.8 541C911.467 535.267 912.133 511.134 923.867 501.267C929.733 496.334 939.333 496.2 944.533 501Z" fill="black"/>
<path d="M1066 491.533C1048.67 499.267 1042 528.467 1054.27 543.133C1066.13 557.133 1088.8 551.533 1096.67 532.6C1103.73 515.933 1098 496.067 1084.93 491.133C1079.87 489.133 1070.93 489.4 1066 491.533ZM1086.53 501.667C1091.2 506.333 1092.67 512.467 1091.6 521.933C1090.13 534.067 1081.73 543 1072 543C1061.6 542.867 1056 535.933 1056 523.267C1056 513 1058.13 507.533 1064.53 501.933C1068.67 498.333 1070.53 497.667 1076 497.667C1081.47 497.667 1083.07 498.333 1086.53 501.667Z" fill="black"/>
<path d="M1144.53 492.2C1134 497 1128.13 508.2 1128 523.8C1128 531.134 1128.67 534.467 1131.07 539C1138.13 552.467 1157.33 554.867 1169.2 543.934C1173.2 540.2 1178.67 528.867 1178.67 523.934V520.334H1163.47H1148.27L1147.73 524.334L1147.07 528.334H1158.27C1171.2 528.334 1172 529.534 1164.67 536.867C1154.27 547.4 1139.73 543.8 1136 529.667C1133.2 519.134 1137.87 505.4 1146.13 500.334C1154.53 495 1167.33 498.734 1170 507C1170.53 508.867 1172 509.667 1174.8 509.667C1178.4 509.667 1178.8 509.267 1178 506.6C1173.6 492.2 1158.67 485.8 1144.53 492.2Z" fill="black"/>
<path d="M1499.33 492.2C1496.4 493.534 1492.67 496.067 1491.07 497.8C1482.27 507.4 1479.6 526.734 1485.47 538.6C1492.53 552.867 1512 555 1524.13 542.867C1533.47 533.534 1536.4 513.267 1530.27 501.534C1524.53 490.6 1511.33 486.734 1499.33 492.2ZM1520.53 501.934C1530.27 511.8 1526.4 535 1514.13 540.867C1506.53 544.467 1500.4 543.667 1495.33 538.6C1489.87 533.134 1488.4 526.334 1490.4 516.734C1493.07 504.2 1499.87 497.667 1510.53 497.667C1515.2 497.667 1517.07 498.467 1520.53 501.934Z" fill="black"/>
<path d="M1629.6 492.467C1619.33 497.667 1613.33 509 1613.33 523C1613.33 532.333 1615.33 538.467 1619.87 543.533C1632 556.867 1653.47 551.667 1661.33 533.4C1665.73 523.4 1665.6 509.533 1661.2 501.667C1656.67 493.4 1652.13 490.6 1643.07 490.067C1637.07 489.667 1634 490.2 1629.6 492.467ZM1648.53 499.267C1653.87 501.533 1657.73 511 1657.07 519.533C1655.6 537.133 1642.13 547.667 1629.33 541C1617.33 534.867 1618.53 508.467 1631.07 500.467C1635.87 497.4 1643.47 496.867 1648.53 499.267Z" fill="black"/>
<path d="M5.46663 499.267C-1.20004 538.2 -1.20004 541.533 4.79996 547.133C9.06663 551.133 18.9333 551.533 24.5333 547.933C29.7333 544.467 31.4666 539.267 35.3333 516.733C37.2 505.8 39.0666 495.667 39.3333 493.933C40 491.4 39.4666 491 36 491C33.8666 491 32 491.4 32 491.8C32 493.933 25.2 532.467 24.4 534.6C22.8 539.133 19.6 541.667 15.3333 541.667C6.9333 541.667 6.39996 537.667 11.2 509.267L14.2666 491H10.5333C7.19996 491 6.79996 491.533 5.46663 499.267Z" fill="black"/>
<path d="M46.7999 517.267C44.3999 531.8 42.1333 545 41.7333 546.6C41.1999 549.267 41.5999 549.667 44.9333 549.667H48.7999L52.5333 526.2C54.6666 513.4 56.7999 503.533 57.3333 504.333C57.8666 505.133 61.1999 515.667 64.7999 527.667L71.3333 549.667H76.3999C79.0666 549.667 81.3333 549.267 81.3333 548.6C81.3333 548.067 83.4666 535.4 85.9999 520.333C88.5333 505.267 90.6666 492.467 90.6666 491.933C90.6666 491.267 89.0666 491 87.0666 491.267C83.4666 491.667 83.3333 491.8 79.7333 513.533C77.7333 525.533 75.8666 535.533 75.5999 535.8C75.3333 536.067 72.1333 526.333 68.3999 514.067L61.7333 491.667L56.3999 491.267L51.0666 490.867L46.7999 517.267Z" fill="black"/>
<path d="M101.333 491.933C101.333 492.6 99.2 505.267 96.6667 520.333C94.1333 535.4 92 548.067 92 548.6C92 549.267 93.7333 549.667 95.7333 549.667H99.4667L103.733 522.6C106.133 507.8 108.533 494.6 108.8 493.267C109.333 491.533 108.667 491 105.467 491C103.2 491 101.333 491.4 101.333 491.933Z" fill="black"/>
<path d="M114 495.933C117.467 520.2 121.333 547.533 121.333 548.6C121.333 549.267 123.467 549.667 126 549.4L130.8 549L144 520.333L157.333 491.667L153.867 491.267C151.867 491 149.867 491.267 149.333 491.933C148.8 492.467 144 502.867 138.667 515C133.333 527.133 128.533 537.4 128 538.067C127.6 538.6 125.733 528.2 124 515L120.933 491H117.067C113.467 491 113.333 491.267 114 495.933Z" fill="black"/>
<path d="M162.133 494.6C160.8 501 153.333 546.6 153.333 548.2C153.333 549.133 157.6 549.667 165.867 549.667C176 549.667 178.533 549.267 179.2 547.533C181.2 542.333 180.267 541.667 171.6 541.667C166.933 541.667 162.8 541.4 162.4 541C162.133 540.6 162.4 536.733 163.067 532.333L164.4 524.467L173.867 524.067C183.067 523.667 183.333 523.533 183.733 519.933L184.133 516.333H175.467C165.6 516.333 165.867 516.733 167.467 505.133L168.4 499H178.133H188V495V491H175.467H162.933L162.133 494.6Z" fill="black"/>
<path d="M199.333 493.933C198.133 499.4 190.667 545.4 190.667 547.533C190.667 548.867 191.867 549.667 193.867 549.667C197.6 549.667 197.2 551 202.133 521.267L205.733 499H211.2C219.2 499 222.667 501.933 222.667 508.467C222.667 516.067 218.133 520.333 210 520.333C206.667 520.333 204 520.733 204 521.267C204 521.933 206.8 528.467 210.267 535.933C216 548.733 216.667 549.667 220.267 549.667C224.8 549.667 224.667 548.333 218.533 536.067C213.867 526.867 213.867 527 217.467 527C219.067 527 222.667 524.733 225.467 521.8C230.267 517 230.667 516.2 230.667 508.733C230.667 495.667 225.067 491 209.467 491C200.8 491 200 491.267 199.333 493.933Z" fill="black"/>
<path d="M276.133 517.267C273.733 531.8 271.467 545 271.067 546.6C270.533 549.267 270.933 549.667 274.267 549.667H278.133L282.4 522.6C284.8 507.8 287.2 494.6 287.467 493.267C288 491.533 287.333 491 284.267 491H280.4L276.133 517.267Z" fill="black"/>
<path d="M298.133 492.467C297.733 493.533 295.467 506.733 292.933 521.933L288.4 549.667H299.2C317.067 549.667 324.933 545.933 331.067 534.467C335.2 526.6 335.333 506.333 331.2 500.867C325.733 493.4 322 491.667 309.867 491.133C301.333 490.867 298.533 491.133 298.133 492.467ZM320.8 501.4C325.333 505 327.067 509.667 327.067 517.933C326.933 527.533 322.267 536.333 315.467 539.533C310.933 541.667 297.333 542.6 297.333 540.6C297.333 540.067 298.8 531 300.667 520.333C302.533 509.667 304 500.6 304 499.933C304 497.933 318 499 320.8 501.4Z" fill="black"/>
<path d="M350.133 510.734C345.067 521.534 338.933 534.734 336.533 539.934L332.133 549.667H336.133C339.733 549.667 340.4 548.867 344 541L347.867 532.334H357.733H367.733L368.533 537.267C370.667 549.8 370.667 549.667 374.8 549.667C378.133 549.667 378.667 549.267 378 546.6C377.6 545 375.6 533.134 373.333 520.334C367.867 488.467 368.667 491 363.6 491C359.467 491.134 359.2 491.4 350.133 510.734ZM364.533 510.6C365.067 514.734 365.733 519.534 366.133 521.267C366.933 524.2 366.667 524.334 359.333 524.334C355.2 524.334 352 523.8 352.267 523.267C356.533 512.734 362 501.934 362.667 502.334C363.2 502.734 364 506.334 364.533 510.6Z" fill="black"/>
<path d="M391.467 492.467C391.067 493.533 388.8 506.733 386.267 521.933L381.733 549.667H392.533C410.4 549.667 418.267 545.933 424.4 534.467C428.533 526.6 428.667 506.333 424.533 500.867C419.067 493.4 415.333 491.667 403.2 491.133C394.667 490.867 391.867 491.133 391.467 492.467ZM414.133 501.4C418.667 505 420.4 509.667 420.4 517.933C420.267 527.533 415.6 536.333 408.8 539.533C404.267 541.667 390.667 542.6 390.667 540.6C390.667 540.067 392.133 531 394 520.333C395.867 509.667 397.333 500.6 397.333 499.933C397.333 497.933 411.333 499 414.133 501.4Z" fill="black"/>
<path d="M441.333 491.933C441.333 492.6 439.2 505.267 436.667 520.333C434.133 535.4 432 548.067 432 548.6C432 549.267 438 549.667 445.333 549.667H458.667V545.667V541.667H449.867H441.067L442 533.933C442.533 529.8 443.2 525.933 443.6 525.267C443.867 524.733 448.267 524.333 453.2 524.333C462.4 524.333 462.4 524.333 462.933 520.333L463.6 516.333H454.267H445.067L446 508.6C446.533 504.467 447.2 500.6 447.6 499.933C447.867 499.4 452.267 499 457.467 499C464.533 499 466.667 498.6 466.667 497.133C466.667 496.067 467.067 494.333 467.467 493.133C468.133 491.267 466.533 491 454.8 491C447.333 491 441.333 491.4 441.333 491.933Z" fill="black"/>
<path d="M863.333 493.933C862.4 498.2 854.667 546.867 854.667 548.333C854.667 550.867 877.467 549.8 883.333 547.133C894.533 541.933 900 531.933 900 516.6C900 498.467 892.4 491 874.133 491C864.8 491 864 491.267 863.333 493.933ZM887.067 501.8C894.133 507.267 895.067 523 888.8 532.467C884.667 538.6 878.133 541.667 869.333 541.667C862.8 541.667 862.4 541.533 863.067 538.6C863.467 537 865.067 527.4 866.8 517.267L869.733 499H876.667C881.733 499 884.667 499.8 887.067 501.8Z" fill="black"/>
<path d="M993.333 491.8C993.333 492.467 991.2 505.267 988.667 520.333C986.133 535.4 984 548.2 984 548.733C984 549.4 985.6 549.667 987.6 549.4C991.2 549 991.2 549 995.6 524.333C997.867 510.733 999.867 499.533 1000 499.267C1000 499.133 1002.67 499 1005.87 499C1010.67 499 1012.27 499.667 1014.53 502.467C1018.4 507.4 1018 511.8 1013.47 516.467C1010.27 519.667 1008.4 520.333 1003.47 520.333C1000.13 520.333 997.333 520.6 997.333 520.867C997.333 521.133 1000.27 527.8 1004 535.533C1010.13 549 1010.8 549.667 1014.53 549.667H1018.67L1015.47 542.6C1013.73 538.867 1011.6 534.067 1010.67 531.933C1009.73 529.933 1009.2 528.2 1009.47 527.933C1009.73 527.8 1012.27 526.6 1014.93 525.4C1021.87 522.2 1024.53 517.533 1024.67 508.2C1024.67 501.133 1024.27 499.933 1020.27 496.067C1016.13 491.933 1015.33 491.667 1004.67 491.133C998.4 491 993.333 491.267 993.333 491.8Z" fill="black"/>
<path d="M1036.8 494.6C1035.47 501 1028 546.6 1028 548.2C1028 549 1029.47 549.667 1031.33 549.667C1033.6 549.667 1034.8 548.733 1035.33 546.6C1036.53 541.267 1044 495.267 1044 493.133C1044 491.8 1042.8 491 1040.8 491C1038.27 491 1037.33 491.933 1036.8 494.6Z" fill="black"/>
<path d="M1188.13 517.267C1185.73 531.8 1183.47 545 1183.07 546.6C1182.53 549.267 1182.93 549.667 1186.27 549.667H1190.13L1193.73 526.6C1195.87 514.067 1197.87 502.6 1198.13 501.267C1198.67 499.533 1200.27 499 1204.67 499C1214.13 499 1218.4 505.667 1214.53 514.067C1212.67 518.2 1208.13 520.333 1201.33 520.333C1198.4 520.333 1196 520.6 1196 520.867C1196 521.133 1198.93 527.667 1202.67 535.533C1208.93 548.867 1209.47 549.667 1213.33 549.667C1216.93 549.667 1217.2 549.4 1216 546.467C1215.33 544.6 1213.33 540.2 1211.33 536.467C1207.07 528.067 1207.2 527.4 1211.87 526.333C1221.73 524.2 1226.93 510.2 1221.87 499.667C1219.07 493.533 1212.93 491 1201.73 491H1192.4L1188.13 517.267Z" fill="black"/>
<path d="M1242.67 499.267C1240.67 503.933 1234.4 517.133 1228.93 528.6L1218.8 549.667H1223.07C1227.07 549.533 1227.6 549 1231.2 541L1235.07 532.333H1244.8C1255.6 532.333 1255.07 531.933 1256.8 543.267C1257.6 549.267 1257.87 549.667 1261.6 549.667C1265.33 549.667 1265.6 549.4 1264.93 545.933C1264.53 543.933 1262.27 530.733 1259.87 516.6L1255.47 491H1250.93C1246.8 491 1246.27 491.533 1242.67 499.267ZM1252.67 517.133L1253.47 524.333H1246.13H1238.8L1242.13 516.733C1244 512.6 1246.53 507.4 1247.6 505.133L1249.87 501L1250.8 505.533C1251.33 508.067 1252.13 513.267 1252.67 517.133Z" fill="black"/>
<path d="M1279.33 492.6C1279.07 493.533 1276.8 506.733 1274.27 521.933L1269.73 549.667H1273.6C1275.6 549.667 1277.33 549.267 1277.33 548.867C1277.33 547 1284.27 506.2 1284.8 504.333C1285.47 502.467 1287.07 506.6 1296 535.933L1300.13 549.667H1304.67C1307.2 549.667 1309.33 549.533 1309.33 549.267C1309.47 549.133 1311.73 535.933 1314.53 519.933L1319.47 491H1315.87C1311.6 491 1312 489.933 1307.87 515.933C1306.13 526.467 1304.4 535 1304 535C1303.47 535 1300.13 525.133 1296.67 513L1290.13 491H1285.07C1282.13 491 1279.73 491.667 1279.33 492.6Z" fill="black"/>
<path d="M1325.6 517.934C1323.2 532.734 1320.8 546.067 1320.4 547.534C1319.73 549.8 1320.53 549.934 1333.73 549.4C1346.8 549 1348.27 548.6 1353.47 545C1361.47 539.4 1365.87 530.334 1366.4 518.334C1366.8 510.6 1366.27 507.934 1363.73 503.134C1358.93 493.8 1355.07 491.8 1341.6 491.267L1330 490.734L1325.6 517.934ZM1351.87 501C1357.07 503.667 1359.07 509.267 1358.4 519.667C1357.87 529.267 1355.47 533.667 1348 538.6C1342.93 542.067 1329.33 543 1329.33 539.934C1329.33 539.134 1330.8 529.667 1332.67 519C1334.53 508.334 1336 499.534 1336 499.267C1336 498.067 1348.8 499.4 1351.87 501Z" fill="black"/>
<path d="M1379.47 494.6C1378.13 501.134 1370.67 546.734 1370.67 548.2C1370.67 549.267 1374.67 549.667 1383.73 549.4L1396.67 549L1397.07 545.267L1397.47 541.667H1388.8C1378.93 541.667 1379.2 542.067 1380.8 530.6L1381.73 524.467L1391.2 524.067C1400.4 523.667 1400.67 523.534 1401.07 519.934L1401.47 516.334H1392.67H1383.73L1384.67 508.6C1385.2 504.467 1385.87 500.6 1386.27 499.934C1386.53 499.4 1390.93 499 1395.87 499C1405.07 499 1405.07 499 1405.6 495L1406.27 491H1393.2H1380.27L1379.47 494.6Z" fill="black"/>
<path d="M1434.8 517.933C1432.4 532.733 1430.13 546.067 1429.73 547.267C1429.2 549.4 1430.27 549.667 1440.13 549.667C1454.13 549.667 1460.67 547.667 1466.93 541.4C1479.2 529.133 1478.8 503.8 1466.27 494.467C1463.2 492.2 1460.13 491.533 1450.8 491.267L1439.07 490.733L1434.8 517.933ZM1462.93 502.867C1467.2 506.733 1467.33 507.133 1467.33 517.4C1467.33 526.2 1466.8 528.867 1464.53 531.933C1459.6 538.6 1453.73 541.667 1445.87 541.667C1437.33 541.667 1437.73 543.133 1441.33 521.133C1445.33 496.867 1444.4 499 1452 499C1457.47 499 1459.47 499.667 1462.93 502.867Z" fill="black"/>
<path d="M1565.47 516.6C1563.07 530.733 1560.8 543.933 1560.4 545.933C1559.73 549.267 1560 549.667 1563.6 549.667H1567.47L1571.2 526.2C1573.33 513.4 1575.47 503.533 1576 504.333C1576.4 505.133 1579.87 515.667 1583.47 527.667L1590 549.667H1595.07C1597.73 549.667 1600 549.267 1600 548.6C1600 548.067 1602.13 535.4 1604.67 520.333C1607.2 505.267 1609.33 492.467 1609.33 491.933C1609.33 491.267 1607.73 491 1605.73 491.267C1602.27 491.667 1602 492.2 1600.4 501.667C1599.47 507.133 1597.73 517.4 1596.53 524.333L1594.27 537L1591.87 529.667C1590.53 525.667 1587.33 515.267 1584.67 506.6L1579.87 491H1574.8H1569.87L1565.47 516.6Z" fill="black"/>
<path d="M1673.47 517.267C1671.07 531.8 1668.8 545 1668.4 546.6C1667.87 549.267 1668.27 549.667 1671.6 549.667H1675.47L1678.53 530.6C1680.13 520.2 1682.13 508.867 1682.93 505.267L1684.27 499H1690.13C1699.6 499 1703.87 505.4 1699.87 514.067C1698 518.2 1693.47 520.333 1686.67 520.333C1683.73 520.333 1681.33 520.6 1681.33 520.867C1681.33 521 1684.4 527.667 1688 535.533C1694.27 548.867 1694.93 549.667 1698.67 549.667C1700.93 549.667 1702.67 549.4 1702.67 549C1702.67 548.6 1700.53 544.067 1698 539C1695.47 533.933 1693.33 529.133 1693.33 528.467C1693.33 527.8 1695.07 526.867 1697.2 526.333C1711.07 523.267 1713.73 498.333 1700.8 493C1698.13 491.933 1692 491 1686.93 491H1677.73L1673.47 517.267Z" fill="black"/>
<path d="M1716.8 493.933C1715.6 498.867 1715.73 499 1721.33 499C1724.4 499 1726.67 499.667 1726.67 500.467C1726.67 502.067 1720.53 539.667 1719.2 545.933C1718.53 549.267 1718.8 549.667 1722.27 549.667H1726.13L1729.73 526.6C1734.53 496.867 1733.87 499 1740.13 499C1743.73 499 1745.33 498.467 1745.33 497.133C1745.33 496.067 1745.73 494.333 1746.13 493.133C1746.8 491.267 1745.07 491 1732.27 491C1718.27 491 1717.6 491.133 1716.8 493.933Z" fill="black"/>
<path d="M1752.8 494.6C1751.47 501 1744 546.6 1744 548.2C1744 549.133 1748.27 549.667 1756.53 549.667C1766.67 549.667 1769.2 549.267 1769.87 547.533C1771.87 542.333 1770.93 541.667 1762.27 541.667C1757.6 541.667 1753.47 541.4 1753.07 541C1752.8 540.6 1753.07 536.733 1753.73 532.333L1755.07 524.467L1764.53 524.067C1773.73 523.667 1774 523.533 1774.4 519.933L1774.8 516.333H1766.13C1756.27 516.333 1756.53 516.733 1758.13 505.133L1759.07 499H1768.67H1778.4L1778.93 495L1779.6 491H1766.53H1753.6L1752.8 494.6Z" fill="black"/>
</svg>
