<svg width="500" height="159" viewBox="0 0 500 159" fill="none" xmlns="http://www.w3.org/2000/svg">
<mask id="mask0_7_125" style="mask-type:luminance" maskUnits="userSpaceOnUse" x="0" y="0" width="500" height="159">
<path d="M0 6.22219e-05H500V158.458H0V6.22219e-05Z" fill="white"/>
</mask>
<g mask="url(#mask0_7_125)">
<path fill-rule="evenodd" clip-rule="evenodd" d="M146.329 6.22219e-05H246.638L227.047 158.458H127.528L146.329 6.22219e-05Z" fill="#2E3192"/>
<path fill-rule="evenodd" clip-rule="evenodd" d="M241.644 33.0608H178.38L175.571 57.1155H233.143L230.442 80.3988H172.871L167.729 124.836H131.07L144.383 10.1248H244.323L241.644 33.0608Z" fill="white"/>
<path fill-rule="evenodd" clip-rule="evenodd" d="M116.828 152.451L119.609 135.568H127.013L126.609 137.935H121.3L120.542 142.736H125.82L125.466 145.062H120.149L119.329 150.02H124.61L124.21 152.451H116.828ZM103.158 152.451L105.904 135.568H109.698C111.785 135.568 113.423 136.224 114.587 137.49C115.744 138.78 116.309 140.587 116.309 142.901C116.309 145.78 115.569 148.095 114.061 149.828C112.574 151.581 110.589 152.451 108.117 152.451H103.158ZM109.698 137.82H107.615L105.595 150.171H108.117C109.937 150.171 111.396 149.54 112.5 148.246C113.616 146.952 114.177 145.237 114.177 143.108C114.177 141.39 113.781 140.103 113.013 139.177C112.259 138.272 111.15 137.82 109.698 137.82ZM99.3561 145.237L98.2935 138.149L95.0881 145.237H99.3561ZM89.5189 152.451L97.3887 135.568H99.7945L102.705 152.451H100.534L99.7173 147.608H94.0394L91.7914 152.451H89.5189ZM77.6967 152.451L80.4567 135.568H84.2303C86.3345 135.568 87.9687 136.224 89.1296 137.49C90.2869 138.78 90.8621 140.587 90.8621 142.901C90.8621 145.78 90.1151 148.095 88.6141 149.828C87.1271 151.581 85.121 152.451 82.6486 152.451H77.6967ZM84.2303 137.82H82.1541L80.1411 150.171H82.6486C84.4757 150.171 85.9487 149.54 87.0674 148.246C88.1757 146.952 88.7158 145.237 88.7158 143.108C88.7158 141.39 88.3475 140.103 87.5725 139.177C86.7974 138.272 85.7032 137.82 84.2303 137.82ZM73.127 152.451L75.901 135.568H78.0123L75.2452 152.451H73.127ZM63.5037 147.039H65.7166C65.7166 147.103 65.7166 147.19 65.6815 147.278V147.499C65.6815 148.491 65.8534 149.203 66.2427 149.691C66.6074 150.171 67.1615 150.431 67.8875 150.431C68.5643 150.431 69.1325 150.171 69.5779 149.649C70.0162 149.109 70.2582 148.491 70.2582 147.678C70.2582 147.134 70.1355 146.682 69.9075 146.293C69.7076 145.903 69.2166 145.451 68.4766 144.911C68.3469 144.855 68.175 144.697 67.9366 144.553C66.9967 143.95 66.3268 143.375 65.8884 142.87C65.5728 142.47 65.3168 142.052 65.1695 141.565C65.0187 141.095 64.9416 140.544 64.9416 139.976C64.9416 138.63 65.3449 137.49 66.162 136.596C66.9686 135.684 67.9962 135.238 69.2587 135.238C70.4756 135.238 71.4015 135.628 72.0784 136.417C72.7763 137.188 73.127 138.237 73.127 139.594V139.882L73.12 140.103H70.9842V139.924L70.9912 139.773C70.9912 139.054 70.8404 138.51 70.4827 138.086C70.16 137.669 69.7076 137.465 69.1325 137.465C68.6134 137.465 68.1259 137.697 67.7296 138.149C67.3544 138.595 67.1615 139.142 67.1615 139.773C67.1615 140.643 67.9751 141.663 69.6129 142.771C69.9356 142.992 70.2161 143.196 70.395 143.319C71.0438 143.764 71.5874 144.402 71.9486 145.149C72.3379 145.875 72.5167 146.682 72.5167 147.548C72.5167 149.017 72.0784 150.28 71.1736 151.315C70.2863 152.293 69.1816 152.781 67.8664 152.781C66.4496 152.781 65.3729 152.328 64.6259 151.423C63.8719 150.497 63.5037 149.175 63.5037 147.464V147.039ZM51.2641 152.451L54.0452 135.568H57.689C59.3654 135.568 60.6735 136.017 61.5923 136.883C62.5042 137.763 62.9776 138.991 62.9776 140.587C62.9776 142.109 62.5498 143.41 61.7151 144.402C60.8594 145.381 59.7021 145.963 58.2572 146.107L61.168 152.451H58.8393L54.9886 144.157H55.3533C57.433 144.129 58.7166 143.95 59.2707 143.553C59.7161 143.252 60.0913 142.835 60.3193 142.319C60.5788 141.842 60.7156 141.27 60.7156 140.695C60.7156 139.801 60.456 139.107 59.9475 138.63C59.4355 138.114 58.7095 137.883 57.7556 137.883C57.5031 137.883 57.2085 137.883 56.8508 137.911C56.5177 137.911 56.1529 137.935 55.7566 137.963L53.3508 152.451H51.2641ZM41.2691 152.451L44.0501 135.568H51.4605L51.0572 137.935H45.7475L44.976 142.736H50.2751L49.9069 145.062H44.6112L43.7766 150.02H49.0652L48.6864 152.451H41.2691ZM30.5761 135.568H32.6803L34.5426 149.691L40.8237 135.568H43.1173L35.4474 152.451H32.8978L30.5761 135.568ZM24.9999 152.451L27.767 135.568H29.8712L27.0831 152.451H24.9999ZM11.1296 152.451L13.9527 135.568H16.8425L20.8791 149.088L23.1306 135.568H25.2279L22.4468 152.451H19.6938L15.5485 138.51L13.2408 152.451H11.1296ZM1.90258 135.568H3.99274L2.31639 145.875C2.23222 146.292 2.17963 146.682 2.15157 147.039C2.10247 147.408 2.10247 147.73 2.10247 147.997C2.10247 148.744 2.28131 149.326 2.67761 149.747C3.06338 150.171 3.58944 150.354 4.27331 150.354C5.19216 150.354 5.87603 150.02 6.31441 149.382C6.78085 148.723 7.17013 147.464 7.48576 145.545L9.12356 135.568H11.2278L9.55493 145.745C9.51986 145.833 9.51284 146.019 9.46725 146.233C9.15161 148.183 8.77285 149.561 8.30992 150.431C7.91713 151.223 7.36301 151.788 6.66511 152.177C5.9602 152.56 5.12202 152.781 4.12251 152.781C2.86349 152.781 1.84995 152.388 1.10296 151.609C0.369984 150.827 -0.00177002 149.747 -0.00177002 148.418C-0.00177002 148.06 0.00526674 147.643 0.0543653 147.19C0.103464 146.745 0.17008 146.233 0.233206 145.745L1.90258 135.568Z" fill="#2E3192"/>
<path fill-rule="evenodd" clip-rule="evenodd" d="M218.15 152.451L220.931 135.568H223.053L220.661 150.021H225.483L225.08 152.451H218.15ZM211.167 145.237L210.115 138.149L206.913 145.237H211.167ZM201.362 152.451L209.225 135.568H211.627L214.531 152.451H212.36L211.518 147.608H205.84L203.634 152.451H201.362ZM188.379 152.451L191.174 135.568H194.786C196.504 135.568 197.799 136.017 198.71 136.883C199.633 137.764 200.092 138.991 200.092 140.587C200.092 142.109 199.682 143.41 198.833 144.403C197.97 145.381 196.831 145.963 195.361 146.107L198.311 152.451H195.968L192.114 144.157H192.475C194.516 144.129 195.824 143.95 196.382 143.554C196.831 143.252 197.195 142.835 197.455 142.319C197.704 141.842 197.841 141.271 197.841 140.696C197.841 139.801 197.564 139.107 197.059 138.63C196.543 138.114 195.817 137.883 194.902 137.883C194.635 137.883 194.327 137.883 193.962 137.911C193.646 137.911 193.264 137.936 192.885 137.964L190.483 152.451H188.379ZM175.262 152.451L178.05 135.568H185.468L185.043 137.936H179.734L178.976 142.737H184.258L183.9 145.062H178.591L177.756 150.021H183.044L182.666 152.451H175.262ZM158.474 152.451L161.213 135.568H165.008C167.105 135.568 168.736 136.196 169.893 137.49C171.05 138.781 171.633 140.587 171.633 142.902C171.633 145.781 170.872 148.095 169.378 149.828C167.887 151.581 165.906 152.451 163.412 152.451H158.474ZM165.008 137.82H162.921L160.905 150.172H163.412C165.243 150.172 166.709 149.54 167.831 148.246C168.922 146.952 169.497 145.237 169.497 143.108C169.497 141.39 169.097 140.103 168.332 139.177C167.564 138.272 166.46 137.82 165.008 137.82ZM145.351 152.451L148.146 135.568H155.556L155.153 137.936H149.836L149.075 142.737H154.35L153.989 145.062H148.693L147.865 150.021H153.15L152.754 152.451H145.351ZM132.561 152.451L135.335 135.568H142.742L142.342 137.936H137.036L136.261 142.737H141.556L141.198 145.062H135.892L134.658 152.451H132.561Z" fill="white"/>
<path fill-rule="evenodd" clip-rule="evenodd" d="M475.602 152.451L478.376 135.568H485.814L485.404 137.935H480.08L479.312 142.736H484.601L484.239 145.062H478.944L478.095 150.02H483.384L483.005 152.451H475.602ZM469.061 152.451L471.463 137.911H468.293L468.696 135.568H476.962L476.594 137.911H473.56L471.155 152.451H469.061ZM455.201 152.451L457.975 135.568H461.608C463.313 135.568 464.607 136.017 465.526 136.883C466.455 137.763 466.908 138.991 466.908 140.587C466.908 142.109 466.483 143.41 465.642 144.402C464.786 145.381 463.65 145.963 462.177 146.107L465.115 152.451H462.78L458.929 144.157H459.29C461.338 144.129 462.654 143.95 463.204 143.553C463.65 143.252 464.011 142.835 464.263 142.319C464.519 141.842 464.656 141.27 464.656 140.695C464.656 139.801 464.375 139.107 463.867 138.63C463.362 138.114 462.64 137.883 461.689 137.883C461.437 137.883 461.142 137.883 460.791 137.911C460.455 137.911 460.107 137.935 459.697 137.963L457.284 152.451H455.201ZM440.121 145.114C440.121 143.613 440.324 142.273 440.749 141.004C441.155 139.773 441.738 138.724 442.544 137.82C443.291 136.978 444.133 136.34 445.101 135.901C446.058 135.449 447.093 135.238 448.229 135.238C450.221 135.238 451.813 135.957 453.002 137.332C454.202 138.745 454.777 140.608 454.777 142.992C454.777 144.094 454.661 145.184 454.416 146.198C454.156 147.19 453.805 148.13 453.325 148.93C452.606 150.171 451.648 151.094 450.509 151.788C449.386 152.479 448.148 152.781 446.777 152.781C444.75 152.781 443.14 152.086 441.92 150.697C440.742 149.326 440.121 147.464 440.121 145.114ZM442.271 144.998C442.271 146.717 442.695 148.06 443.516 149.053C444.34 150.08 445.455 150.589 446.833 150.589C448.552 150.589 449.927 149.901 451.024 148.491C452.094 147.068 452.655 145.272 452.655 143.045C452.655 141.334 452.238 139.976 451.413 138.963C450.593 137.935 449.478 137.465 448.085 137.465C446.409 137.465 444.989 138.149 443.915 139.559C442.825 140.972 442.271 142.806 442.271 144.998ZM425.563 152.451L428.379 135.568H431.248L435.292 149.088L437.557 135.568H439.64L436.873 152.451H434.106L429.968 138.51L427.66 152.451H425.563ZM403.672 145.114C403.672 143.613 403.886 142.273 404.289 141.004C404.707 139.773 405.303 138.724 406.071 137.82C406.822 136.978 407.691 136.34 408.652 135.901C409.596 135.449 410.644 135.238 411.77 135.238C413.783 135.238 415.372 135.957 416.564 137.332C417.735 138.745 418.346 140.608 418.346 142.992C418.346 144.094 418.212 145.184 417.967 146.198C417.714 147.19 417.371 148.13 416.873 148.93C416.147 150.171 415.214 151.094 414.071 151.788C412.941 152.479 411.686 152.781 410.329 152.781C408.294 152.781 406.685 152.086 405.475 150.697C404.282 149.326 403.672 147.464 403.672 145.114ZM405.801 144.998C405.801 146.717 406.232 148.06 407.057 149.053C407.877 150.08 409.003 150.589 410.378 150.589C412.072 150.589 413.474 149.901 414.558 148.491C415.652 147.068 416.192 145.272 416.192 143.045C416.192 141.334 415.782 139.976 414.968 138.963C414.137 137.935 413.022 137.465 411.644 137.465C409.918 137.465 408.55 138.149 407.446 139.559C406.373 140.972 405.801 142.806 405.801 144.998ZM389.293 152.451L392.029 135.568H395.83C397.931 135.568 399.569 136.196 400.705 137.49C401.877 138.78 402.438 140.587 402.438 142.901C402.438 145.78 401.694 148.095 400.193 149.828C398.713 151.581 396.721 152.451 394.249 152.451H389.293ZM395.83 137.82H393.733L391.713 150.171H394.249C396.069 150.171 397.535 149.54 398.643 148.246C399.748 146.952 400.309 145.237 400.309 143.108C400.309 141.39 399.92 140.103 399.159 139.177C398.384 138.272 397.282 137.82 395.83 137.82ZM373.519 152.451L376.307 135.568H383.731L383.321 137.935H378.008L377.24 142.736H382.521L382.157 145.062H376.882L376.026 150.02H381.329L380.933 152.451H373.519ZM359.883 152.451L362.622 135.568H366.403C368.521 135.568 370.148 136.196 371.295 137.49C372.467 138.78 373.014 140.587 373.014 142.901C373.014 145.78 372.281 148.095 370.787 149.828C369.279 151.581 367.294 152.451 364.828 152.451H359.883ZM366.403 137.82H364.313L362.307 150.171H364.828C366.631 150.171 368.1 149.54 369.212 148.246C370.334 146.952 370.881 145.237 370.881 143.108C370.881 141.39 370.506 140.103 369.738 139.177C368.97 138.272 367.855 137.82 366.403 137.82ZM346.038 152.451L348.826 135.568H351.726L355.794 149.088L358.025 135.568H360.122L357.341 152.451H354.581L350.435 138.51L348.121 152.451H346.038ZM341.983 145.237L340.928 138.149L337.722 145.237H341.983ZM332.153 152.451L340.026 135.568H342.436L345.347 152.451H343.169L342.362 147.608H336.663L334.436 152.451H332.153ZM322.312 152.451L325.122 135.568H328.751C330.428 135.568 331.715 136.017 332.655 136.883C333.574 137.763 334.033 138.991 334.033 140.587C334.033 142.109 333.605 143.41 332.763 144.402C331.936 145.381 330.757 145.963 329.305 146.107L332.23 152.451H329.902L326.065 144.157H326.423C328.485 144.129 329.793 143.95 330.312 143.553C330.771 143.252 331.122 142.835 331.389 142.319C331.634 141.842 331.778 141.27 331.778 140.695C331.778 139.801 331.525 139.107 330.996 138.63C330.484 138.114 329.772 137.883 328.811 137.883C328.565 137.883 328.264 137.883 327.927 137.911C327.58 137.911 327.215 137.935 326.819 137.963L324.413 152.451H322.312ZM319.303 146.293H312.756L313.121 144.157H321.902C321.622 146.773 320.762 148.874 319.331 150.466C317.88 152.034 316.084 152.781 313.913 152.781C311.844 152.781 310.21 152.086 309.003 150.676C307.804 149.266 307.215 147.341 307.215 144.911C307.215 143.589 307.401 142.354 307.804 141.183C308.176 139.976 308.73 138.963 309.456 138.058C310.21 137.129 311.072 136.431 312.03 135.992C313.001 135.505 314.05 135.266 315.207 135.266C316.975 135.266 318.395 135.736 319.503 136.732C320.619 137.763 321.394 139.198 321.79 141.127H319.552C319.265 139.924 318.721 139.012 317.974 138.388C317.238 137.763 316.319 137.465 315.221 137.465C313.552 137.465 312.16 138.149 311.051 139.559C309.94 140.972 309.364 142.736 309.364 144.911C309.364 146.629 309.803 147.997 310.627 149.017C311.476 150.08 312.584 150.589 313.962 150.589C315.162 150.589 316.228 150.196 317.21 149.41C318.195 148.635 318.893 147.548 319.303 146.293ZM284.058 145.114C284.058 143.613 284.268 142.273 284.671 141.004C285.078 139.773 285.678 138.724 286.474 137.82C287.228 136.978 288.077 136.34 289.031 135.901C289.981 135.449 291.037 135.238 292.18 135.238C294.147 135.238 295.736 135.957 296.946 137.332C298.131 138.745 298.721 140.608 298.721 142.992C298.721 144.094 298.591 145.184 298.345 146.198C298.096 147.19 297.728 148.13 297.262 148.93C296.529 150.171 295.592 151.094 294.453 151.788C293.309 152.479 292.057 152.781 290.714 152.781C288.68 152.781 287.077 152.086 285.864 150.697C284.664 149.326 284.058 147.464 284.058 145.114ZM286.215 144.998C286.215 146.717 286.625 148.06 287.445 149.053C288.305 150.08 289.392 150.589 290.77 150.589C292.461 150.589 293.863 149.901 294.947 148.491C296.038 147.068 296.599 145.272 296.599 143.045C296.599 141.334 296.182 139.976 295.357 138.963C294.502 137.935 293.414 137.465 292.036 137.465C290.339 137.465 288.918 138.149 287.845 139.559C286.748 140.972 286.215 142.806 286.215 144.998ZM278.762 152.451L281.529 135.568H283.626L280.856 152.451H278.762ZM266.884 152.451L269.665 135.568H273.302C274.995 135.568 276.29 136.017 277.219 136.883C278.138 137.763 278.583 138.991 278.583 140.587C278.583 142.109 278.173 143.41 277.324 144.402C276.486 145.381 275.329 145.963 273.863 146.107L276.802 152.451H274.459L270.626 144.157H270.987C273.035 144.129 274.329 143.95 274.897 143.553C275.343 143.252 275.686 142.835 275.939 142.319C276.205 141.842 276.349 141.27 276.349 140.695C276.349 139.801 276.083 139.107 275.55 138.63C275.034 138.114 274.308 137.883 273.393 137.883C273.13 137.883 272.828 137.883 272.474 137.911C272.137 137.911 271.769 137.935 271.39 137.963L269.002 152.451H266.884ZM246.034 145.114C246.034 143.613 246.266 142.273 246.645 141.004C247.076 139.773 247.672 138.724 248.437 137.82C249.184 136.978 250.046 136.34 251 135.901C251.951 135.449 253.006 135.238 254.136 135.238C256.131 135.238 257.727 135.957 258.912 137.332C260.091 138.745 260.68 140.608 260.68 142.992C260.68 144.094 260.582 145.184 260.322 146.198C260.063 147.19 259.698 148.13 259.228 148.93C258.498 150.171 257.576 151.094 256.419 151.788C255.282 152.479 254.048 152.781 252.67 152.781C250.636 152.781 249.04 152.086 247.83 150.697C246.638 149.326 246.034 147.464 246.034 145.114ZM248.17 144.998C248.17 146.717 248.588 148.06 249.412 149.053C250.232 150.08 251.355 150.589 252.733 150.589C254.444 150.589 255.83 149.901 256.917 148.491C258 147.068 258.547 145.272 258.547 143.045C258.547 141.334 258.137 139.976 257.327 138.963C256.506 137.935 255.398 137.465 253.999 137.465C252.301 137.465 250.916 138.149 249.808 139.559C248.724 140.972 248.17 142.806 248.17 144.998ZM231.642 152.451L234.402 135.568H238.189C240.279 135.568 241.917 136.196 243.089 137.49C244.225 138.78 244.814 140.587 244.814 142.901C244.814 145.78 244.06 148.095 242.555 149.828C241.082 151.581 239.08 152.451 236.6 152.451H231.642ZM238.189 137.82H236.124L234.089 150.171H236.6C238.431 150.171 239.904 149.54 241.012 148.246C242.11 146.952 242.685 145.237 242.685 143.108C242.685 141.39 242.278 140.103 241.514 139.177C240.746 138.272 239.631 137.82 238.189 137.82Z" fill="#2E3192"/>
<path fill-rule="evenodd" clip-rule="evenodd" d="M319.956 44.7463C320.38 41.078 318.742 37.9252 315.063 35.2844C311.353 32.6295 307.25 31.3109 302.771 31.3109H278.282L275.034 59.2199H299.85C305.139 59.2199 309.722 57.9644 313.58 55.4358C317.269 52.9143 319.416 49.3721 319.956 44.7463ZM350.786 124.837H350.435H311.539L312.584 91.7897C312.296 89.6224 311.563 87.5216 310.413 85.5717C309.14 83.7761 307.25 82.1735 304.763 80.7636C301.077 80.7636 294.947 80.6444 286.386 80.3989C277.808 80.1674 273.235 80.0692 272.625 80.0692L267.417 124.837H230.758L244.088 10.1249H320.022C330.354 10.1249 339.311 12.5693 346.897 17.3634C355.882 23.1114 359.806 30.8585 358.67 40.6256C357.888 47.324 354.746 53.1247 349.239 58.0555C344.252 62.4955 337.894 65.7114 330.231 67.6648L330.081 69.0782C332.998 69.3833 335.902 70.0706 338.764 71.1228C347.703 74.4264 349.664 80.0166 350.541 89.5347L350.765 122.052L363.745 10.1249H415.954L456.909 86.0522L465.722 10.1249H500L486.656 124.837H436.894L393.733 47.1487L384.699 124.837H350.786ZM137.663 74.0652C135.615 91.6074 129.93 104.527 120.581 112.793C109.425 122.68 91.8475 127.639 67.8594 127.639C43.5311 127.639 26.8902 123.153 17.9542 114.179C9.71972 105.881 6.67913 92.5087 8.82193 74.0652L16.2673 10.1249H52.9054L45.488 74.0652C44.3517 83.9445 45.8457 91.7371 50.0226 97.3414C54.1819 102.932 60.4911 105.758 68.8589 105.758C76.9075 105.758 83.7638 103.366 89.3891 98.5162C95.8806 92.9295 99.7594 84.7546 100.99 74.0652L108.429 10.1249H145.077L137.663 74.0652Z" fill="#05A1E6"/>
</g>
</svg>
